<?xml version="1.0" encoding="UTF-8"?>
<svg version="1.1" xmlns="http://www.w3.org/2000/svg" width="273" height="161">
<path d="M0 0 C-0.47730838 1.4589426 -0.95691042 2.91713496 -1.4375 4.375 C-1.70433594 5.18710938 -1.97117188 5.99921875 -2.24609375 6.8359375 C-3 9 -3 9 -4 11 C-1.69 11.33 0.62 11.66 3 12 C2.76257508 15.56137386 2.56695777 17.43304223 0 20 C-4.34236661 21.44745554 -7.71226614 20.29846407 -12 19 C-12 20.32 -12 21.64 -12 23 C-11.113125 23.226875 -10.22625 23.45375 -9.3125 23.6875 C-3.46428238 26.0047183 -0.0109022 30.60114088 3 36 C5.68855316 43.62516206 6.60746375 53.0162855 3.5625 60.5625 C3.046875 61.366875 2.53125 62.17125 2 63 C1.505 64.485 1.505 64.485 1 66 C1.99 66.33 2.98 66.66 4 67 C4 67.66 4 68.32 4 69 C-2.17829089 70.08467186 -8.23610803 70.18348983 -14.5 70.1875 C-15.50675781 70.19974609 -16.51351562 70.21199219 -17.55078125 70.22460938 C-23.10604866 70.23553061 -27.75511661 69.86370154 -33 68 C-32.505 67.01 -32.505 67.01 -32 66 C-31.34 66 -30.68 66 -30 66 C-30.50077051 63.39599336 -31.18791604 61.68430104 -32.5625 59.375 C-34.46979773 54.89699662 -34.4713585 50.81329543 -34 46 C-33.505 45.505 -33.505 45.505 -33 45 C-32.75435576 43.48174103 -32.52870443 41.96023012 -32.3125 40.4375 C-30.98282018 33.55271338 -27.51686288 28.56844834 -21.8125 24.5 C-19 23 -19 23 -16 23 C-15.67 21.68 -15.34 20.36 -15 19 C-16.3303125 19.12375 -16.3303125 19.12375 -17.6875 19.25 C-21.80694806 18.93909826 -23.21928844 18.01905826 -26 15 C-26.875 11.8125 -26.875 11.8125 -27 9 C-26 8 -26 8 -23.1875 7.875 C-20.57164058 7.97758272 -18.4806638 8.23671883 -16 9 C-15.67 7.906875 -15.34 6.81375 -15 5.6875 C-14.00173561 3.34395549 -13.3509343 2.22711981 -11.1953125 0.83203125 C-7.20437077 -0.77187552 -4.19688723 -1.44267999 0 0 Z " fill="#EBE1BC" transform="translate(144,7)"/>
<path d="M0 0 C-0.47730838 1.4589426 -0.95691042 2.91713496 -1.4375 4.375 C-1.70433594 5.18710938 -1.97117188 5.99921875 -2.24609375 6.8359375 C-3 9 -3 9 -4 11 C-1.69 11.33 0.62 11.66 3 12 C2.76257508 15.56137386 2.56695777 17.43304223 0 20 C-4.34236661 21.44745554 -7.71226614 20.29846407 -12 19 C-12 20.32 -12 21.64 -12 23 C-11.34 23.33 -10.68 23.66 -10 24 C-10.99 24 -11.98 24 -13 24 C-13 24.66 -13 25.32 -13 26 C-13.99 26 -14.98 26 -16 26 C-16 25.34 -16 24.68 -16 24 C-17.5833253 25.2488427 -17.5833253 25.2488427 -19 27 C-19 28.32 -19 29.64 -19 31 C-18.360625 31.309375 -17.72125 31.61875 -17.0625 31.9375 C-15 33 -15 33 -14 34 C-13.5 36.1875 -13.5 36.1875 -14 39 C-16.0891162 41.32974739 -18.38657893 43.27939925 -21 45 C-21.66 45 -22.32 45 -23 45 C-23 45.99 -23 46.98 -23 48 C-23.495 48.495 -23.495 48.495 -24 49 C-22.35 49.33 -20.7 49.66 -19 50 C-19.495 52.475 -19.495 52.475 -20 55 C-20.33 53.68 -20.66 52.36 -21 51 C-21.7425 51.66 -22.485 52.32 -23.25 53 C-26 55 -26 55 -30 55 C-30.125 52.625 -30.125 52.625 -30 50 C-29.34 49.34 -28.68 48.68 -28 48 C-29.32 47.34 -30.64 46.68 -32 46 C-32.45434224 39.6392086 -31.71779795 35.27231581 -28 30 C-24.53935947 26.21953724 -21.31681221 23.32223104 -16 23 C-15.67 21.68 -15.34 20.36 -15 19 C-16.3303125 19.12375 -16.3303125 19.12375 -17.6875 19.25 C-21.80694806 18.93909826 -23.21928844 18.01905826 -26 15 C-26.875 11.8125 -26.875 11.8125 -27 9 C-26 8 -26 8 -23.1875 7.875 C-20.57164058 7.97758272 -18.4806638 8.23671883 -16 9 C-15.67 7.906875 -15.34 6.81375 -15 5.6875 C-14.00173561 3.34395549 -13.3509343 2.22711981 -11.1953125 0.83203125 C-7.20437077 -0.77187552 -4.19688723 -1.44267999 0 0 Z " fill="#648A5E" transform="translate(144,7)"/>
<path d="M0 0 C1.28583984 -0.01160156 1.28583984 -0.01160156 2.59765625 -0.0234375 C4.9375 0.375 4.9375 0.375 6.703125 1.54296875 C8.39274224 4.05066016 8.44856304 6.06307165 8.625 9.0625 C8.72361328 10.55330078 8.72361328 10.55330078 8.82421875 12.07421875 C8.86160156 12.83347656 8.89898437 13.59273437 8.9375 14.375 C9.845 14.00375 10.7525 13.6325 11.6875 13.25 C14.9375 12.375 14.9375 12.375 17.1875 13.25 C17.765 13.62125 18.3425 13.9925 18.9375 14.375 C19.5975 14.375 20.2575 14.375 20.9375 14.375 C20.9375 13.715 20.9375 13.055 20.9375 12.375 C19.844375 12.271875 18.75125 12.16875 17.625 12.0625 C13.9375 11.375 13.9375 11.375 12 10.125 C10.52275525 7.69189101 10.51801424 6.17157176 10.9375 3.375 C12.6153172 1.11265294 13.50580523 0.44742248 16.3125 -0.0234375 C17.17875 -0.01570313 18.045 -0.00796875 18.9375 0 C19.80375 -0.00773437 20.67 -0.01546875 21.5625 -0.0234375 C24.33130767 0.44106642 25.20679299 1.22300246 26.9375 3.375 C25.8125 4.9375 25.8125 4.9375 23.9375 6.375 C20.75 6.0625 20.75 6.0625 17.9375 5.375 C17.6075 6.035 17.2775 6.695 16.9375 7.375 C18.030625 7.49875 19.12375 7.6225 20.25 7.75 C23.9375 8.375 23.9375 8.375 26.9375 10.375 C27.3284766 13.43765004 27.58123531 15.45965544 25.76171875 18.046875 C23.24046478 19.88247746 21.46352697 19.74096318 18.375 19.6875 C16.91900391 19.68169922 16.91900391 19.68169922 15.43359375 19.67578125 C12.9375 19.375 12.9375 19.375 10.9375 17.375 C10.6075 18.035 10.2775 18.695 9.9375 19.375 C7.14557795 19.42880578 4.3546859 19.46857669 1.5625 19.5 C0.7684375 19.51675781 -0.025625 19.53351563 -0.84375 19.55078125 C-2.91742015 19.56835473 -4.99133241 19.47835168 -7.0625 19.375 C-9.0625 17.375 -9.0625 17.375 -9.1875 13.75 C-9.14625 12.63625 -9.105 11.5225 -9.0625 10.375 C-2.4375 7.5 -2.4375 7.5 0.9375 6.375 C-1.19189828 5.02473223 -1.19189828 5.02473223 -4.1875 6.3125 C-5.610625 6.8384375 -5.610625 6.8384375 -7.0625 7.375 C-7.7225 6.055 -8.3825 4.735 -9.0625 3.375 C-6.00006084 0.68914849 -4.06414341 -0.03677958 0 0 Z M-2.0625 11.375 C-2.3925 12.695 -2.7225 14.015 -3.0625 15.375 C-1.7425 15.375 -0.4225 15.375 0.9375 15.375 C1.2675 14.055 1.5975 12.735 1.9375 11.375 C0.6175 11.375 -0.7025 11.375 -2.0625 11.375 Z " fill="#FBFBFB" transform="translate(155.0625,101.625)"/>
<path d="M0 0 C0.66 0 1.32 0 2 0 C2 0.66 2 1.32 2 2 C2.99 2 3.98 2 5 2 C5 1.34 5 0.68 5 0 C6.98 0 8.96 0 11 0 C11.75 2.25 11.75 2.25 12 5 C10.66666667 6.33333333 9.33333333 7.66666667 8 9 C7.48454694 12.5345353 7.50420357 14.25630535 9.5 17.25 C9.995 17.8275 10.49 18.405 11 19 C11 19.66 11 20.32 11 21 C11.99 21 12.98 21 14 21 C14.66 22.65 15.32 24.3 16 26 C13.66062093 27.16968953 12.22630632 27.13364221 9.625 27.125 C8.46871094 27.12886719 8.46871094 27.12886719 7.2890625 27.1328125 C5.0671811 27.00389788 3.13381492 26.61383717 1 26 C1.51032394 29.77639718 2.20766929 31.44722581 5 34 C3.54263913 34.19491452 2.08405407 34.38069358 0.625 34.5625 C-0.59316406 34.71912109 -0.59316406 34.71912109 -1.8359375 34.87890625 C-4 35 -4 35 -6 34 C-6 34.66 -6 35.32 -6 36 C-6.66 36 -7.32 36 -8 36 C-8.33 35.34 -8.66 34.68 -9 34 C-9.33 34.99 -9.66 35.98 -10 37 C-6.7 37 -3.4 37 0 37 C0.33 36.34 0.66 35.68 1 35 C1 36.32 1 37.64 1 39 C-1.10304477 39.1080023 -3.20766909 39.18558987 -5.3125 39.25 C-6.48425781 39.29640625 -7.65601562 39.3428125 -8.86328125 39.390625 C-12 39 -12 39 -13.85546875 37.171875 C-15.75199878 33.57299891 -16.114516 30.81773172 -16.0625 26.8125 C-16.05347656 25.91144531 -16.04445313 25.01039062 -16.03515625 24.08203125 C-16.02355469 23.39496094 -16.01195313 22.70789063 -16 22 C-15.34 21.67 -14.68 21.34 -14 21 C-11.375 22.4375 -11.375 22.4375 -9 24 C-9.66 24.66 -10.32 25.32 -11 26 C-11.64767793 28.57061311 -11.64767793 28.57061311 -12 31 C-10.02 30.67 -8.04 30.34 -6 30 C-5.67 29.01 -5.34 28.02 -5 27 C-4.34 27 -3.68 27 -3 27 C-2.67 27.99 -2.34 28.98 -2 30 C-2 28.68 -2 27.36 -2 26 C-3.65 26 -5.3 26 -7 26 C-7 25.34 -7 24.68 -7 24 C-6.34 24 -5.68 24 -5 24 C-5 23.01 -5 22.02 -5 21 C-3.04690112 19.59886384 -1.04291182 18.26660533 1 17 C3.21896136 15.17528109 3.21896136 15.17528109 3.375 12.5625 C3.28216862 9.86015645 3.28216862 9.86015645 1.0625 8.5 C0.381875 8.005 -0.29875 7.51 -1 7 C-1.875 4.4375 -1.875 4.4375 -2 2 C-1.34 1.34 -0.68 0.68 0 0 Z " fill="#DDDEA7" transform="translate(126,31)"/>
<path d="M0 0 C1.65 0.33 3.3 0.66 5 1 C4.835 1.86625 4.67 2.7325 4.5 3.625 C3.89980373 6.95771568 3.89980373 6.95771568 4.125 10.1875 C4 13 4 13 2.9375 14.875 C-0.00227124 16.58196395 -2.67870803 16.18799766 -6 16 C-6 16.66 -6 17.32 -6 18 C-5.30132812 17.96519531 -4.60265625 17.93039063 -3.8828125 17.89453125 C-2.97273438 17.86746094 -2.06265625 17.84039062 -1.125 17.8125 C-0.22007813 17.77769531 0.68484375 17.74289063 1.6171875 17.70703125 C2.79667969 17.85205078 2.79667969 17.85205078 4 18 C6 21 6 21 5.8125 24.5625 C5 28 5 28 2 30 C-1.03125 30.30078125 -1.03125 30.30078125 -4.5 30.3125 C-6.21703125 30.33763672 -6.21703125 30.33763672 -7.96875 30.36328125 C-11 30 -11 30 -12.88671875 28.640625 C-14.45743031 26.32589218 -14.35043376 24.7333833 -14 22 C-13.34 21.34 -12.68 20.68 -12 20 C-11.25999616 16.97729478 -11.25999616 16.97729478 -11 14 C-11.33 13.67 -11.66 13.34 -12 13 C-12.45528455 6.85365854 -12.45528455 6.85365854 -11 4.125 C-8.81298625 2.89480477 -7.34973651 2.70803571 -4.875 2.4375 C-3.59625 2.293125 -2.3175 2.14875 -1 2 C-0.67 1.34 -0.34 0.68 0 0 Z M-6 7 C-6 8.65 -6 10.3 -6 12 C-4.68 12 -3.36 12 -2 12 C-2 10.35 -2 8.7 -2 7 C-3.32 7 -4.64 7 -6 7 Z M-7 22 C-7.33 22.99 -7.66 23.98 -8 25 C-5.65466049 25.76956136 -5.65466049 25.76956136 -3 26 C-1.1645201 24.66621425 -1.1645201 24.66621425 0 23 C-1.12534105 21.64381501 -1.12534105 21.64381501 -4.0625 21.9375 C-5.031875 21.958125 -6.00125 21.97875 -7 22 Z " fill="#FBFBFB" transform="translate(39,99)"/>
<path d="M0 0 C2 2 2 2 2 5 C2.66 5.33 3.32 5.66 4 6 C3.01 6 2.02 6 1 6 C1 6.66 1 7.32 1 8 C0.01 8 -0.98 8 -2 8 C-2 7.34 -2 6.68 -2 6 C-3.5833253 7.2488427 -3.5833253 7.2488427 -5 9 C-5 10.32 -5 11.64 -5 13 C-4.360625 13.309375 -3.72125 13.61875 -3.0625 13.9375 C-1 15 -1 15 0 16 C0.5 18.1875 0.5 18.1875 0 21 C-2.0891162 23.32974739 -4.38657893 25.27939925 -7 27 C-7.66 27 -8.32 27 -9 27 C-9 27.99 -9 28.98 -9 30 C-9.33 30.33 -9.66 30.66 -10 31 C-8.35 31.33 -6.7 31.66 -5 32 C-5.495 34.475 -5.495 34.475 -6 37 C-6.33 35.68 -6.66 34.36 -7 33 C-7.7425 33.66 -8.485 34.32 -9.25 35 C-12 37 -12 37 -16 37 C-16.125 34.625 -16.125 34.625 -16 32 C-15.34 31.34 -14.68 30.68 -14 30 C-15.32 29.34 -16.64 28.68 -18 28 C-18.45434224 21.6392086 -17.71779795 17.27231581 -14 12 C-11.06906303 8.79819445 -8.50864935 6.30172987 -4.1875 5.4375 C-3.465625 5.293125 -2.74375 5.14875 -2 5 C-0.62533375 2.52363988 -0.62533375 2.52363988 0 0 Z " fill="#BABE72" transform="translate(130,25)"/>
<path d="M0 0 C2.31 0 4.62 0 7 0 C7 2.31 7 4.62 7 7 C7.60328125 6.94199219 8.2065625 6.88398437 8.828125 6.82421875 C15.28540305 6.45969499 15.28540305 6.45969499 18.5625 8.9375 C20.45268456 12.96441494 21.01734153 16.63141578 20 21 C18.484375 23.76171875 18.484375 23.76171875 16 26 C12.99011679 26.37774639 10.7166237 26.48153413 7.75 26.3125 C5.1925 26.209375 2.635 26.10625 0 26 C0 17.42 0 8.84 0 0 Z M10 11 C9.01 11.66 8.02 12.32 7 13 C6.74984127 16.58357241 6.74984127 16.58357241 7 20 C8.88316159 21.10836423 8.88316159 21.10836423 11 22 C11.66 21.67 12.32 21.34 13 21 C13.85056945 17.44307323 14.16909807 15.50729422 13 12 C12.01 11.67 11.02 11.34 10 11 Z " fill="#FBFBFB" transform="translate(124,95)"/>
<path d="M0 0 C2.31 0 4.62 0 7 0 C7.33 3.3 7.66 6.6 8 10 C8.99 9.01 9.98 8.02 11 7 C14.6875 6.8125 14.6875 6.8125 18 7 C15.03 11.455 15.03 11.455 12 16 C12.99 17.27875 13.98 18.5575 15 19.875 C18 23.75 18 23.75 18 26 C14.6875 26.25 14.6875 26.25 11 26 C9.0625 24 9.0625 24 8 22 C7.67 23.32 7.34 24.64 7 26 C4.69 26 2.38 26 0 26 C0 17.42 0 8.84 0 0 Z " fill="#FBFBFB" transform="translate(184,95)"/>
<path d="M0 0 C2.578125 -0.0825 5.15625 -0.165 7.8125 -0.25 C8.62050049 -0.28641602 9.42850098 -0.32283203 10.26098633 -0.36035156 C13.39466037 -0.40910022 15.46881981 -0.40668483 18 1.53125 C19.38276008 4.94493894 19.32076934 8.13464204 19.1875 11.75 C19.16719727 12.79607422 19.16719727 12.79607422 19.14648438 13.86328125 C19.1112945 15.57585541 19.05749155 17.28802941 19 19 C17.02 19 15.04 19 13 19 C12.95101562 18.15695313 12.90203125 17.31390625 12.8515625 16.4453125 C12.73941406 14.80175781 12.73941406 14.80175781 12.625 13.125 C12.55539063 12.03445312 12.48578125 10.94390625 12.4140625 9.8203125 C12.26746509 6.86953526 12.26746509 6.86953526 10 5 C9.01 5.495 9.01 5.495 8 6 C7.53045739 9.04581269 7.53045739 9.04581269 7.375 12.5625 C7.26285156 14.35880859 7.26285156 14.35880859 7.1484375 16.19140625 C7.09945312 17.11824219 7.05046875 18.04507813 7 19 C4.69 19 2.38 19 0 19 C0 12.73 0 6.46 0 0 Z " fill="#FBFBFB" transform="translate(102,102)"/>
<path d="M0 0 C2.625 1.625 2.625 1.625 4 4 C4 5.98 4 7.96 4 10 C-1.94 10.495 -1.94 10.495 -8 11 C-7.01 11.99 -6.02 12.98 -5 14 C-4.01 14 -3.02 14 -2 14 C-2 13.34 -2 12.68 -2 12 C0.4375 12.375 0.4375 12.375 3 13 C3.33 13.66 3.66 14.32 4 15 C2.625 17 2.625 17 0 19 C-4.35635675 19.68746494 -8.38531816 19.96152061 -12.25 17.66015625 C-14.85552524 15.18839682 -14.98872128 13.15226268 -15.25 9.625 C-14.98489341 5.78095442 -14.31409877 4.02612916 -12 1 C-8.29974915 -0.85012543 -4.03929345 -0.46256425 0 0 Z M-8 5 C-8 5.66 -8 6.32 -8 7 C-6.02 7 -4.04 7 -2 7 C-2.66 6.01 -3.32 5.02 -4 4 C-6.0745356 3.8509288 -6.0745356 3.8509288 -8 5 Z " fill="#FBFBFB" transform="translate(75,102)"/>
<path d="M0 0 C0.9590625 -0.00773437 1.918125 -0.01546875 2.90625 -0.0234375 C5.5 0.375 5.5 0.375 7.33203125 1.66796875 C9.21607006 4.42156394 8.68265321 7.14812669 8.5 10.375 C4.54 10.375 0.58 10.375 -3.5 10.375 C-3.17 11.695 -2.84 13.015 -2.5 14.375 C0.52419525 13.78696203 3.51758453 13.14821882 6.5 12.375 C7.16 13.695 7.82 15.015 8.5 16.375 C6.72101453 18.63317348 5.82343358 19.32018912 2.94140625 19.80859375 C-4.75402069 19.81903531 -4.75402069 19.81903531 -8.125 17.8125 C-10.42314589 13.73851411 -10.98435284 10.1509604 -9.75 5.625 C-7.18250412 1.00350742 -5.33819369 -0.04304995 0 0 Z M-0.5 4.375 C-1.49 5.365 -2.48 6.355 -3.5 7.375 C-1.52 7.375 0.46 7.375 2.5 7.375 C2.5 6.715 2.5 6.055 2.5 5.375 C1.51 5.045 0.52 4.715 -0.5 4.375 Z " fill="#FBFBFB" transform="translate(90.5,101.625)"/>
<path d="M0 0 C3.39385072 0.07847054 4.8170872 0.18438732 7.75 2 C9.125 4.375 9.125 4.375 9.125 10.375 C5.165 10.375 1.205 10.375 -2.875 10.375 C-2.545 11.365 -2.215 12.355 -1.875 13.375 C-0.885 13.705 0.105 14.035 1.125 14.375 C2.115 13.715 3.105 13.055 4.125 12.375 C6.3125 12.75 6.3125 12.75 8.125 13.375 C8.125 14.695 8.125 16.015 8.125 17.375 C5.54100594 19.95899406 4.34129635 19.7018593 0.75 19.75 C-2.70834823 19.66852059 -4.47131735 19.6056758 -7.5 17.875 C-9.40110144 14.41845192 -10.09469618 11.32168493 -9.875 7.375 C-7.56413662 2.31310879 -5.60553859 0.08316823 0 0 Z M-2.875 5.375 C-2.875 6.035 -2.875 6.695 -2.875 7.375 C-0.895 7.375 1.085 7.375 3.125 7.375 C3.125 6.715 3.125 6.055 3.125 5.375 C0.125 4.04166667 0.125 4.04166667 -2.875 5.375 Z " fill="#FBFBFB" transform="translate(211.875,101.625)"/>
<path d="M0 0 C1.98 0.99 3.96 1.98 6 3 C5.34 3.66 4.68 4.32 4 5 C3.35232207 7.57061311 3.35232207 7.57061311 3 10 C4.98 9.67 6.96 9.34 9 9 C9.33 8.01 9.66 7.02 10 6 C10.66 6 11.32 6 12 6 C12.33 6.99 12.66 7.98 13 9 C13 7.68 13 6.36 13 5 C11.35 5 9.7 5 8 5 C8 4.34 8 3.68 8 3 C15.59 3 23.18 3 31 3 C31 3.66 31 4.32 31 5 C28.66062093 6.16968953 27.22630632 6.13364221 24.625 6.125 C23.46871094 6.12886719 23.46871094 6.12886719 22.2890625 6.1328125 C20.0671811 6.00389788 18.13381492 5.61383717 16 5 C16.51032394 8.77639718 17.20766929 10.44722581 20 13 C18.54263913 13.19491452 17.08405407 13.38069358 15.625 13.5625 C14.81289062 13.66691406 14.00078125 13.77132812 13.1640625 13.87890625 C11 14 11 14 9 13 C9 13.66 9 14.32 9 15 C8.34 15 7.68 15 7 15 C6.67 14.34 6.34 13.68 6 13 C5.67 13.99 5.34 14.98 5 16 C8.3 16 11.6 16 15 16 C15.33 15.34 15.66 14.68 16 14 C16 15.32 16 16.64 16 18 C13.89695523 18.1080023 11.79233091 18.18558987 9.6875 18.25 C7.92986328 18.31960937 7.92986328 18.31960937 6.13671875 18.390625 C3 18 3 18 1.14453125 16.171875 C-0.72925486 12.61615802 -1.13654726 9.83571011 -1.125 5.875 C-1.12757812 4.98554687 -1.13015625 4.09609375 -1.1328125 3.1796875 C-1 1 -1 1 0 0 Z " fill="#E9E6C9" transform="translate(111,52)"/>
<path d="M0 0 C-0.33 0.99 -0.66 1.98 -1 3 C-0.01 3.33 0.98 3.66 2 4 C2 4.66 2 5.32 2 6 C-4.17829089 7.08467186 -10.23610803 7.18348983 -16.5 7.1875 C-18.01013672 7.20586914 -18.01013672 7.20586914 -19.55078125 7.22460938 C-25.10604866 7.23553061 -29.75511661 6.86370154 -35 5 C-34.67 4.34 -34.34 3.68 -34 3 C-33.34 3 -32.68 3 -32 3 C-31.67 2.01 -31.34 1.02 -31 0 C-29.9941687 0.00785522 -29.9941687 0.00785522 -28.96801758 0.01586914 C-25.916188 0.03671605 -22.86437344 0.04968469 -19.8125 0.0625 C-18.75740234 0.07087891 -17.70230469 0.07925781 -16.61523438 0.08789062 C-15.59365234 0.09111328 -14.57207031 0.09433594 -13.51953125 0.09765625 C-12.58214111 0.10289307 -11.64475098 0.10812988 -10.67895508 0.11352539 C-7.98447147 0.07432601 -7.98447147 0.07432601 -5.3425293 -0.56860352 C-3 -1 -3 -1 0 0 Z " fill="#99AD78" transform="translate(146,70)"/>
<path d="M0 0 C4.84284602 2.06517954 6.92385439 5.25452431 9 10 C9.65423627 13.33755313 9.92342313 16.60277164 10 20 C7 22 7 22 4.3125 21.625 C3.1678125 21.315625 3.1678125 21.315625 2 21 C2 20.34 2 19.68 2 19 C1.01 19 0.02 19 -1 19 C-3.52110621 15.97467255 -4.87457273 13.78392045 -5.5 9.875 C-4.88453041 6.33604988 -3.64909274 5.32799059 -1 3 C-0.67 2.01 -0.34 1.02 0 0 Z " fill="#BEBE95" transform="translate(138,33)"/>
<path d="M0 0 C0 1.65 0 3.3 0 5 C1.65 5 3.3 5 5 5 C5 6.32 5 7.64 5 9 C3.35 9 1.7 9 0 9 C0.33 12.3 0.66 15.6 1 19 C2.32 19 3.64 19 5 19 C5.5625 20.9375 5.5625 20.9375 6 23 C4.41105928 24.58894072 2.75198576 24.16998411 0.5625 24.1875 C-0.64212891 24.20876953 -0.64212891 24.20876953 -1.87109375 24.23046875 C-4 24 -4 24 -6 22 C-6.1953125 18.9609375 -6.1953125 18.9609375 -6.125 15.375 C-6.10695312 14.18648437 -6.08890625 12.99796875 -6.0703125 11.7734375 C-6.04710937 10.85820313 -6.02390625 9.94296875 -6 9 C-6.99 9 -7.98 9 -9 9 C-9 7.68 -9 6.36 -9 5 C-8.01 5 -7.02 5 -6 5 C-6 3.68 -6 2.36 -6 1 C-3 0 -3 0 0 0 Z " fill="#FBFBFB" transform="translate(231,97)"/>
<path d="M0 0 C4.29 0 8.58 0 13 0 C13 1.65 13 3.3 13 5 C11.02 5 9.04 5 7 5 C6.67 9.62 6.34 14.24 6 19 C4.02 19 2.04 19 0 19 C0 12.73 0 6.46 0 0 Z " fill="#FBFBFB" transform="translate(47,102)"/>
<path d="M0 0 C0 6.16309726 -0.67659816 9.41457381 -5 14 C-5.66 14 -6.32 14 -7 14 C-7.33 14.99 -7.66 15.98 -8 17 C-8 15.35 -8 13.7 -8 12 C-8.66 12 -9.32 12 -10 12 C-9.67 12.99 -9.34 13.98 -9 15 C-13.49996683 15.44117322 -15.34611117 15.52867608 -18.9375 12.625 C-21 10 -21 10 -21 8 C-17.4780279 7.91995518 -14.38018531 7.95994298 -11 9 C-10.38125 7.329375 -10.38125 7.329375 -9.75 5.625 C-8.70268215 3.19109231 -8.22647187 2.16802752 -6.0625 0.5625 C-4 0 -4 0 0 0 Z " fill="#669862" transform="translate(139,7)"/>
<path d="M0 0 C1.875 1.1875 1.875 1.1875 3 3 C3.4375 5.4375 3.4375 5.4375 3 8 C0.98109317 10.7666501 -0.18055623 11.84010853 -3.5625 12.5 C-6 12 -6 12 -7.8125 10.3125 C-9.21992268 7.57172952 -9.46773289 6.04026376 -9 3 C-6.73529086 -0.64869805 -4.03159541 -0.50394943 0 0 Z " fill="#161C0E" transform="translate(127,38)"/>
<path d="M0 0 C0.66 0.33 1.32 0.66 2 1 C1.67 1.66 1.34 2.32 1 3 C1.66 3 2.32 3 3 3 C3 2.34 3 1.68 3 1 C6.96 1 10.92 1 15 1 C15 1.99 15 2.98 15 4 C14.01 4 13.02 4 12 4 C11.67 4.66 11.34 5.32 11 6 C12.98 5.67 14.96 5.34 17 5 C17 3.68 17 2.36 17 1 C20.3 0.67 23.6 0.34 27 0 C27 0.66 27 1.32 27 2 C27.66 2.33 28.32 2.66 29 3 C29 3.66 29 4.32 29 5 C21.09388645 7.63537118 13.23134837 7.17981101 5 7 C5 6.67 5 6.34 5 6 C6.65 6 8.3 6 10 6 C9.67 5.34 9.34 4.68 9 4 C5.7 4 2.4 4 -1 4 C-0.67 2.68 -0.34 1.36 0 0 Z " fill="#D4D6A9" transform="translate(117,64)"/>
<path d="M0 0 C1.8125 1.125 1.8125 1.125 3 3 C3.3125 6.0625 3.3125 6.0625 3 9 C1 11 1 11 -2.5 11.3125 C-4.2325 11.1578125 -4.2325 11.1578125 -6 11 C-8.30019361 7.54970958 -8.43132515 6.05445642 -8 2 C-4.76746204 -0.15502531 -3.74849077 -0.46856135 0 0 Z " fill="#1C2718" transform="translate(141,38)"/>
<path d="M0 0 C6.33333333 0 12.66666667 0 19 0 C19 1.65 19 3.3 19 5 C15.00204108 5.95619733 11.29196078 6.1039592 7.1875 6.0625 C6.02605469 6.05347656 4.86460937 6.04445313 3.66796875 6.03515625 C2.78753906 6.02355469 1.90710938 6.01195312 1 6 C-0.0625 4.125 -0.0625 4.125 -1 2 C-0.67 1.34 -0.34 0.68 0 0 Z " fill="#A5B478" transform="translate(127,57)"/>
<path d="M0 0 C8.25 0.33 16.5 0.66 25 1 C25 1.99 25 2.98 25 4 C17.91320242 5.3234381 8.87431317 6.88330404 2.1875 3.5 C1.465625 3.005 0.74375 2.51 0 2 C0 1.34 0 0.68 0 0 Z " fill="#6C9C4E" transform="translate(117,70)"/>
<path d="M0 0 C7.59 0 15.18 0 23 0 C23 0.66 23 1.32 23 2 C20.66062093 3.16968953 19.22630632 3.13364221 16.625 3.125 C15.85414063 3.12757812 15.08328125 3.13015625 14.2890625 3.1328125 C12.0671811 3.00389788 10.13381492 2.61383717 8 2 C8.55144911 6.08072342 8.91330796 6.91330796 12 10 C7.545 10.495 7.545 10.495 3 11 C3 10.34 3 9.68 3 9 C2.34 8.67 1.68 8.34 1 8 C2.32 7.34 3.64 6.68 5 6 C5 4.68 5 3.36 5 2 C3.35 2 1.7 2 0 2 C0 1.34 0 0.68 0 0 Z " fill="#EEEEC1" transform="translate(119,55)"/>
<path d="M0 0 C3.465 1.485 3.465 1.485 7 3 C5.02 3.99 5.02 3.99 3 5 C3 5.99 3 6.98 3 8 C2.67 8.33 2.34 8.66 2 9 C3.65 9.33 5.3 9.66 7 10 C6.67 11.65 6.34 13.3 6 15 C5.67 13.68 5.34 12.36 5 11 C4.2575 11.66 3.515 12.32 2.75 13 C0 15 0 15 -4 15 C-4.56638908 10.18569279 -2.82561627 7.79692186 0 4 C-0.66 3.34 -1.32 2.68 -2 2 C-1.34 1.34 -0.68 0.68 0 0 Z " fill="#CDCD91" transform="translate(118,47)"/>
<path d="M0 0 C1.8125 0.25 1.8125 0.25 4 1 C4.474375 1.680625 4.94875 2.36125 5.4375 3.0625 C6.2109375 4.0215625 6.2109375 4.0215625 7 5 C9.62625139 5.33425735 9.62625139 5.33425735 12 5 C12 4.34 12 3.68 12 3 C12.66 3 13.32 3 14 3 C14.33 3.66 14.66 4.32 15 5 C15.66 5.33 16.32 5.66 17 6 C17.625 8.0625 17.625 8.0625 18 10 C13.04434628 11.20869603 9.74269529 10.89707811 5 9 C2.0625 6.625 2.0625 6.625 0 4 C0 2.68 0 1.36 0 0 Z " fill="#608F5E" transform="translate(117,16)"/>
<path d="M0 0 C0.66 0.66 1.32 1.32 2 2 C4.57061311 2.64767793 4.57061311 2.64767793 7 3 C6.67 4.32 6.34 5.64 6 7 C6.99 7.33 7.98 7.66 9 8 C3.72 8 -1.56 8 -7 8 C-7 7.01 -7 6.02 -7 5 C-4.0625 2.875 -4.0625 2.875 -1 1 C-0.67 0.67 -0.34 0.34 0 0 Z " fill="#CBCC90" transform="translate(128,47)"/>
<path d="M0 0 C2 2 2 2 2 5 C2.66 5.33 3.32 5.66 4 6 C3.01 6 2.02 6 1 6 C1 6.66 1 7.32 1 8 C0.01 8 -0.98 8 -2 8 C-2 7.34 -2 6.68 -2 6 C-3.5833253 7.2488427 -3.5833253 7.2488427 -5 9 C-5 10.32 -5 11.64 -5 13 C-6.98 13.66 -8.96 14.32 -11 15 C-11.33 13.35 -11.66 11.7 -12 10 C-7.59283088 6.09650735 -7.59283088 6.09650735 -4.3125 5.5625 C-3.549375 5.376875 -2.78625 5.19125 -2 5 C-0.62533375 2.52363988 -0.62533375 2.52363988 0 0 Z " fill="#A2AA69" transform="translate(130,25)"/>
<path d="M0 0 C-1.99119846 2.98679769 -3.53215423 4.8780499 -7 6 C-9.75 5.625 -9.75 5.625 -12 5 C-12 3.68 -12 2.36 -12 1 C-8.00439392 -1.83022097 -4.57262677 -0.76210446 0 0 Z " fill="#659B61" transform="translate(146,20)"/>
<path d="M0 0 C2.0625 0.4375 2.0625 0.4375 4 1 C3.01 1 2.02 1 1 1 C1 1.99 1 2.98 1 4 C1.61875 3.505 2.2375 3.01 2.875 2.5 C5 1 5 1 7 1 C7.25 3.3125 7.25 3.3125 7 6 C5 7.8125 5 7.8125 3 9 C1.35 8.01 -0.3 7.02 -2 6 C-1.125 1.125 -1.125 1.125 0 0 Z " fill="#354638" transform="translate(123,40)"/>
<path d="M0 0 C0.05441656 1.89551022 0.09298035 3.7914792 0.125 5.6875 C0.14820313 6.74324219 0.17140625 7.79898438 0.1953125 8.88671875 C-0.00141271 12.02251859 -0.66942346 14.17645373 -2 17 C-3 14 -3 14 -3.375 10.4375 C-3.684375 8.7359375 -3.684375 8.7359375 -4 7 C-4.99 6.34 -5.98 5.68 -7 5 C-7 4.34 -7 3.68 -7 3 C-1.125 0 -1.125 0 0 0 Z " fill="#D0CD9F" transform="translate(149,52)"/>
<path d="M0 0 C0.66 1.32 1.32 2.64 2 4 C2.66 4 3.32 4 4 4 C4.33 3.34 4.66 2.68 5 2 C5.99 2.33 6.98 2.66 8 3 C7.67 4.65 7.34 6.3 7 8 C5.02 8.66 3.04 9.32 1 10 C-1.29404844 6.55892734 -1.26293056 5.03160191 -1 1 C-0.67 0.67 -0.34 0.34 0 0 Z " fill="#444D3F" transform="translate(134,39)"/>
<path d="M0 0 C0.66 0 1.32 0 2 0 C2.4125 0.45375 2.825 0.9075 3.25 1.375 C5.58139465 3.53986646 7.97828036 4.12705877 11 5 C7.6853333 7.02907167 5.5684021 7.12742133 1.75 6.625 C0.85796875 6.51414062 -0.0340625 6.40328125 -0.953125 6.2890625 C-1.62859375 6.19367188 -2.3040625 6.09828125 -3 6 C-3 5.01 -3 4.02 -3 3 C-2.34 3 -1.68 3 -1 3 C-0.67 2.01 -0.34 1.02 0 0 Z " fill="#A3BA81" transform="translate(115,70)"/>
<path d="M0 0 C0.66 0 1.32 0 2 0 C2 0.66 2 1.32 2 2 C2.99 2 3.98 2 5 2 C5 1.34 5 0.68 5 0 C6.98 0 8.96 0 11 0 C11.33 1.32 11.66 2.64 12 4 C11.67 3.34 11.34 2.68 11 2 C8.87635519 1.77390663 8.87635519 1.77390663 7.375 3.5 C6.92125 3.995 6.4675 4.49 6 5 C6 4.34 6 3.68 6 3 C5.01 3 4.02 3 3 3 C2.67 4.65 2.34 6.3 2 8 C1.01 7.67 0.02 7.34 -1 7 C-1.625 4.625 -1.625 4.625 -2 2 C-1.34 1.34 -0.68 0.68 0 0 Z " fill="#C6D189" transform="translate(126,31)"/>
<path d="M0 0 C0.66 0.33 1.32 0.66 2 1 C1.67 1.66 1.34 2.32 1 3 C1.66 3 2.32 3 3 3 C3 2.34 3 1.68 3 1 C6.96 1 10.92 1 15 1 C15 1.99 15 2.98 15 4 C9.72 4 4.44 4 -1 4 C-0.67 2.68 -0.34 1.36 0 0 Z " fill="#94856F" transform="translate(117,64)"/>
<path d="M0 0 C0.99 0 1.98 0 3 0 C2.67 0.66 2.34 1.32 2 2 C2.66 2 3.32 2 4 2 C4.33 1.34 4.66 0.68 5 0 C6.65 0.33 8.3 0.66 10 1 C9.67 2.65 9.34 4.3 9 6 C8.67 4.68 8.34 3.36 8 2 C7.2575 2.66 6.515 3.32 5.75 4 C3 6 3 6 -1 6 C-1.042721 4.33388095 -1.04063832 2.66617115 -1 1 C-0.67 0.67 -0.34 0.34 0 0 Z " fill="#81935D" transform="translate(115,56)"/>
<path d="M0 0 C3.5411021 -0.08047959 6.59409652 0.02688472 10 1 C10.66 1 11.32 1 12 1 C12 1.99 12 2.98 12 4 C9 6 9 6 6.3125 5.625 C5.549375 5.41875 4.78625 5.2125 4 5 C4 4.34 4 3.68 4 3 C3.01 3 2.02 3 1 3 C0.67 2.01 0.34 1.02 0 0 Z " fill="#C1B27E" transform="translate(136,49)"/>
<path d="M0 0 C-1.12047806 3.36143418 -2.49707183 4.57528834 -5 7 C-5.33 7.66 -5.66 8.32 -6 9 C-6.66 9 -7.32 9 -8 9 C-8.33 9.66 -8.66 10.32 -9 11 C-8.70673279 7.18752628 -8.49869932 4.6706646 -6.1875 1.5625 C-4 0 -4 0 0 0 Z " fill="#7DA978" transform="translate(139,7)"/>
<path d="M0 0 C0.66 0 1.32 0 2 0 C2.33 0.66 2.66 1.32 3 2 C3.66 2.33 4.32 2.66 5 3 C5.625 5.0625 5.625 5.0625 6 7 C1.05632546 8.20577428 -2.20862412 7.6290678 -7 6 C-7 5.67 -7 5.34 -7 5 C-4.69 5 -2.38 5 0 5 C0 3.35 0 1.7 0 0 Z " fill="#527951" transform="translate(129,19)"/>
<path d="M0 0 C1.32 0 2.64 0 4 0 C3.64950425 3.24208567 3.43778819 4.61527704 0.9375 6.8125 C0.298125 7.204375 -0.34125 7.59625 -1 8 C-1.99 7.01 -2.98 6.02 -4 5 C-3.34 5 -2.68 5 -2 5 C-1.34 3.35 -0.68 1.7 0 0 Z " fill="#72A968" transform="translate(135,11)"/>
<path d="M0 0 C7.59 0 15.18 0 23 0 C23 0.99 23 1.98 23 3 C22.29746094 2.835 21.59492188 2.67 20.87109375 2.5 C17.85687308 1.9750745 15.11849341 1.93707092 12.0625 2 C7.91440813 2.04091829 4.07063689 1.90458598 0 1 C0 0.67 0 0.34 0 0 Z " fill="#70944F" transform="translate(119,71)"/>
<path d="M0 0 C0.33 0.99 0.66 1.98 1 3 C-1.03643934 6.05465901 -1.63943304 6.87981101 -5 8 C-8.25 7.625 -8.25 7.625 -11 7 C-10.38125 6.71125 -9.7625 6.4225 -9.125 6.125 C-6.86674235 5.06279958 -6.86674235 5.06279958 -5 3 C-3.67479497 2.31731862 -2.34187818 1.6492959 -1 1 C-0.67 0.67 -0.34 0.34 0 0 Z " fill="#527651" transform="translate(146,20)"/>
<path d="M0 0 C0.928125 0.2784375 0.928125 0.2784375 1.875 0.5625 C4.04160178 1.23686176 4.04160178 1.23686176 6 0 C6 1.65 6 3.3 6 5 C3.69 5 1.38 5 -1 5 C-0.67 3.35 -0.34 1.7 0 0 Z " fill="#889857" transform="translate(140,57)"/>
<path d="M0 0 C0.598125 0.268125 1.19625 0.53625 1.8125 0.8125 C2.1425 1.8025 2.4725 2.7925 2.8125 3.8125 C-1.6425 4.3075 -1.6425 4.3075 -6.1875 4.8125 C-6.1875 3.8225 -6.1875 2.8325 -6.1875 1.8125 C-3.93528616 0.44508445 -2.66192242 -0.22816478 0 0 Z " fill="#E0D9A1" transform="translate(127.1875,50.1875)"/>
<path d="M0 0 C3.33523252 1.38009621 5.18607951 2.84950652 7 6 C6.67 6.99 6.34 7.98 6 9 C5.5875 8.54625 5.175 8.0925 4.75 7.625 C2.93591905 5.94049626 1.24714373 5.00734029 -1 4 C-0.67 2.68 -0.34 1.36 0 0 Z " fill="#919875" transform="translate(138,33)"/>
<path d="M0 0 C-0.66 1.32 -1.32 2.64 -2 4 C-4.64 4 -7.28 4 -10 4 C-10 3.01 -10 2.02 -10 1 C-6.61981469 -0.04005702 -3.5219721 -0.08004482 0 0 Z " fill="#A08C72" transform="translate(144,64)"/>
<path d="M0 0 C0.66 0 1.32 0 2 0 C2.125 4.75 2.125 4.75 1 7 C0.34 7 -0.32 7 -1 7 C-1 7.66 -1 8.32 -1 9 C-1.66 9 -2.32 9 -3 9 C-2.67 7.68 -2.34 6.36 -2 5 C-2.99 4.67 -3.98 4.34 -5 4 C-4.0409375 3.8453125 -4.0409375 3.8453125 -3.0625 3.6875 C-2.381875 3.460625 -1.70125 3.23375 -1 3 C-0.67 2.01 -0.34 1.02 0 0 Z " fill="#CAD0A4" transform="translate(121,58)"/>
<path d="M0 0 C2 2 2 2 2 5 C2.66 5.33 3.32 5.66 4 6 C3.01 6 2.02 6 1 6 C1 6.66 1 7.32 1 8 C0.01 8 -0.98 8 -2 8 C-2 7.34 -2 6.68 -2 6 C-2.99 5.67 -3.98 5.34 -5 5 C-4.01 5 -3.02 5 -2 5 C-1.34 3.35 -0.68 1.7 0 0 Z " fill="#81996D" transform="translate(130,25)"/>
<path d="M0 0 C3.71599191 -0.20086443 4.77208445 -0.1519437 8 2 C10.32387947 2.39387788 12.65793749 2.73486085 15 3 C15 3.33 15 3.66 15 4 C9.05542387 5.09644404 5.32006564 5.41029848 0 2 C0 1.34 0 0.68 0 0 Z " fill="#79A45E" transform="translate(117,70)"/>
<path d="M0 0 C0.33 0.66 0.66 1.32 1 2 C-0.01553817 5.0466145 -1.20762558 7.31143836 -3 10 C-3.39387788 12.32387947 -3.73486085 14.65793749 -4 17 C-4.33 17 -4.66 17 -5 17 C-5.46060581 10.55151869 -4.41348898 6.49722522 -1 1 C-0.67 0.67 -0.34 0.34 0 0 Z " fill="#A7B072" transform="translate(117,36)"/>
<path d="M0 0 C0.99 0.33 1.98 0.66 3 1 C2.67 1.66 2.34 2.32 2 3 C3.65 3 5.3 3 7 3 C7 3.99 7 4.98 7 6 C5.02 6 3.04 6 1 6 C-0.0625 4.125 -0.0625 4.125 -1 2 C-0.67 1.34 -0.34 0.68 0 0 Z " fill="#809157" transform="translate(127,57)"/>
<path d="M0 0 C2.97 0 5.94 0 9 0 C9 0.66 9 1.32 9 2 C5.78548731 3.60725635 2.56387464 3.05748185 -1 3 C-0.67 2.01 -0.34 1.02 0 0 Z " fill="#F8F4C7" transform="translate(133,55)"/>
<path d="M0 0 C-3.6643155 2.442877 -5.68553809 2.07844476 -10 2 C-10.99 2.495 -10.99 2.495 -12 3 C-11.67 2.01 -11.34 1.02 -11 0 C-6.94952424 -1.35015859 -4.2079832 -0.62084998 0 0 Z " fill="#85B281" transform="translate(146,20)"/>
<path d="M0 0 C2.475 0.99 2.475 0.99 5 2 C4.67 2.99 4.34 3.98 4 5 C1.9375 5.6875 1.9375 5.6875 0 6 C-0.66 4.68 -1.32 3.36 -2 2 C-1.34 1.34 -0.68 0.68 0 0 Z " fill="#8E9969" transform="translate(145,28)"/>
<path d="M0 0 C4.31392226 0.4793247 6.16569547 1.7457985 9 5 C6.69 5 4.38 5 2 5 C1.34 3.35 0.68 1.7 0 0 Z " fill="#80B57D" transform="translate(121,17)"/>
<path d="M0 0 C2.475 0.99 2.475 0.99 5 2 C3.68 3.65 2.36 5.3 1 7 C0.34 6.67 -0.32 6.34 -1 6 C-1.042721 4.33388095 -1.04063832 2.66617115 -1 1 C-0.67 0.67 -0.34 0.34 0 0 Z " fill="#EBF1C8" transform="translate(112,53)"/>
<path d="M0 0 C0.99 0.33 1.98 0.66 3 1 C2.67 2.65 2.34 4.3 2 6 C1.01 6.33 0.02 6.66 -1 7 C-1.625 5.1875 -1.625 5.1875 -2 3 C-1.34 2.01 -0.68 1.02 0 0 Z " fill="#2A3F36" transform="translate(139,41)"/>
<path d="M0 0 C1.98 0 3.96 0 6 0 C6.33 1.32 6.66 2.64 7 4 C6.67 3.34 6.34 2.68 6 2 C3.87635519 1.77390663 3.87635519 1.77390663 2.375 3.5 C1.92125 3.995 1.4675 4.49 1 5 C1 4.34 1 3.68 1 3 C0.34 2.67 -0.32 2.34 -1 2 C-0.67 1.34 -0.34 0.68 0 0 Z " fill="#C9D3A0" transform="translate(131,31)"/>
<path d="M0 0 C3.94727588 -0.17942163 6.5980513 -0.09350689 10 2 C9.67 2.99 9.34 3.98 9 5 C8.34 4.34 7.68 3.68 7 3 C3.91652174 2.83318891 3.91652174 2.83318891 1 3 C0.67 2.01 0.34 1.02 0 0 Z " fill="#7B9876" transform="translate(118,15)"/>
<path d="M0 0 C1.32 0.33 2.64 0.66 4 1 C3.01 3.97 2.02 6.94 1 10 C0.67 10 0.34 10 0 10 C0 6.66666667 0 3.33333333 0 0 Z " fill="#5C7D5E" transform="translate(140,6)"/>
<path d="M0 0 C0.433125 0.639375 0.86625 1.27875 1.3125 1.9375 C2.91239177 4.26746003 2.91239177 4.26746003 6 5 C6 5.66 6 6.32 6 7 C3.625 7.1875 3.625 7.1875 1 7 C-1 4 -1 4 -0.625 1.8125 C-0.41875 1.214375 -0.2125 0.61625 0 0 Z " fill="#262219" transform="translate(120,43)"/>
<path d="M0 0 C2.64 0 5.28 0 8 0 C8 0.99 8 1.98 8 3 C5.36 3 2.72 3 0 3 C0 2.01 0 1.02 0 0 Z " fill="#A49380" transform="translate(124,65)"/>
<path d="M0 0 C3.465 1.485 3.465 1.485 7 3 C6.34 3.66 5.68 4.32 5 5 C1.70285207 4.67028521 0.3773161 4.3773161 -2 2 C-1.34 1.34 -0.68 0.68 0 0 Z " fill="#DCB78F" transform="translate(118,47)"/>
<path d="M0 0 C0.33 0.66 0.66 1.32 1 2 C1.66 2.33 2.32 2.66 3 3 C2.34 5.31 1.68 7.62 1 10 C0.34 10 -0.32 10 -1 10 C-0.67 8.35 -0.34 6.7 0 5 C-0.99 4.67 -1.98 4.34 -3 4 C-2.34 3.67 -1.68 3.34 -1 3 C-0.67 2.01 -0.34 1.02 0 0 Z " fill="#609E5D" transform="translate(139,6)"/>
<path d="M0 0 C0 1.65 0 3.3 0 5 C-1.98 5 -3.96 5 -6 5 C-5.34 4.67 -4.68 4.34 -4 4 C-3.67 3.01 -3.34 2.02 -3 1 C-1 0 -1 0 0 0 Z " fill="#DDC394" transform="translate(146,46)"/>
<path d="M0 0 C0.33 0 0.66 0 1 0 C1.04254356 1.99954746 1.04080783 4.00041636 1 6 C0 7 0 7 -3.0625 7.0625 C-4.5165625 7.0315625 -4.5165625 7.0315625 -6 7 C-3 5 -3 5 -1 5 C-0.67 3.35 -0.34 1.7 0 0 Z " fill="#120C06" transform="translate(142,42)"/>
<path d="M0 0 C0.99 0 1.98 0 3 0 C3.33 1.65 3.66 3.3 4 5 C3.01 5.33 2.02 5.66 1 6 C0.34 5.34 -0.32 4.68 -1 4 C-0.625 1.875 -0.625 1.875 0 0 Z " fill="#D3D7A2" transform="translate(130,42)"/>
<path d="M0 0 C0.33 0 0.66 0 1 0 C0.67 2.64 0.34 5.28 0 8 C-1.32 8.33 -2.64 8.66 -4 9 C-2.68 6.03 -1.36 3.06 0 0 Z " fill="#C5CD80" transform="translate(118,36)"/>
<path d="M0 0 C0.99 0.33 1.98 0.66 3 1 C2.67 1.99 2.34 2.98 2 4 C1.01 3.67 0.02 3.34 -1 3 C-0.67 2.01 -0.34 1.02 0 0 Z " fill="#9DA97C" transform="translate(147,34)"/>
</svg>
