<?xml version="1.0" encoding="UTF-8"?>
<svg version="1.1" xmlns="http://www.w3.org/2000/svg" width="461" height="129">
<path d="M0 0 C152.13 0 304.26 0 461 0 C461 42.57 461 85.14 461 129 C308.87 129 156.74 129 0 129 C0 86.43 0 43.86 0 0 Z " fill="#FDFEFD" transform="translate(0,0)"/>
<path d="M0 0 C-0.99 3.3 -1.98 6.6 -3 10 C-0.69 10.66 1.62 11.32 4 12 C3.6875 13.875 3.6875 13.875 3 16 C-0.68717438 18.45811625 -2.64345704 18.31118164 -7 18 C-7.99 17.34 -8.98 16.68 -10 16 C-10 17.98 -10 19.96 -10 22 C-8.9790625 22.0309375 -8.9790625 22.0309375 -7.9375 22.0625 C-3.03075102 23.62848372 0.55836234 27.57804874 3.171875 31.96875 C4.0438296 34.10750657 4.36018829 35.89319909 4.5625 38.1875 C4.57461534 41.78190939 4.57461534 41.78190939 6 43 C6.68096227 49.10246958 5.77133606 53.57280022 3 59 C2.01 59 1.02 59 0 59 C0 59.66 0 60.32 0 61 C1.32 61.66 2.64 62.32 4 63 C4 63.33 4 63.66 4 64 C-1.78487768 64.82546771 -7.40925198 65.18263271 -13.25 65.1875 C-14.03890625 65.19974609 -14.8278125 65.21199219 -15.640625 65.22460938 C-22.70272256 65.2425032 -22.70272256 65.2425032 -26 63 C-25.3125 61.0625 -25.3125 61.0625 -24 59 C-21.375 58.25 -21.375 58.25 -19 58 C-20.65 57.67 -22.3 57.34 -24 57 C-23.67 56.01 -23.34 55.02 -23 54 C-23 54.66 -23 55.32 -23 56 C-22.34 56 -21.68 56 -21 56 C-21 55.34 -21 54.68 -21 54 C-17.04 54 -13.08 54 -9 54 C-9 55.32 -9 56.64 -9 58 C-5.535 58.495 -5.535 58.495 -2 59 C-2 58.34 -2 57.68 -2 57 C-4.97 57.495 -4.97 57.495 -8 58 C-8 56.68 -8 55.36 -8 54 C-6 54 -4 54 -2 54 C-2 53.34 -2 52.68 -2 52 C-5.96 52 -9.92 52 -14 52 C-14.33 50.68 -14.66 49.36 -15 48 C-14.505 47.505 -14.505 47.505 -14 47 C-12.10014619 47 -10.19971884 47.00350388 -8.30078125 47.0625 C-5.51230824 46.98675201 -2.75154749 46.45859125 0 46 C-5.61 46 -11.22 46 -17 46 C-16.67 47.65 -16.34 49.3 -16 51 C-19.40562852 51.77842938 -22.50765756 52.09978121 -26 52 C-26 49.36 -26 46.72 -26 44 C-26.66 43.67 -27.32 43.34 -28 43 C-28.49660517 37.04073801 -27.42745947 32.94633364 -24 28 C-21.87380661 25.67648007 -19.73381518 23.5827351 -17 22 C-15.68 22 -14.36 22 -13 22 C-13 20.35 -13 18.7 -13 17 C-14.093125 16.9175 -15.18625 16.835 -16.3125 16.75 C-20 16 -20 16 -21.9375 14.1875 C-23 12 -23 12 -23 8 C-16.375 7.75 -16.375 7.75 -13 10 C-12.7525 8.906875 -12.505 7.81375 -12.25 6.6875 C-11 3 -11 3 -9.3125 1.0625 C-6.14094996 -0.39469867 -3.44315277 -0.19864343 0 0 Z " fill="#D4D396" transform="translate(48,32)"/>
<path d="M0 0 C1.98 0.66 3.96 1.32 6 2 C5.67 3.65 5.34 5.3 5 7 C4.01 7.33 3.02 7.66 2 8 C2.47953125 8.85271484 2.47953125 8.85271484 2.96875 9.72265625 C4.65530052 13.44712199 4.83289258 17.00638687 4 21 C1.63919419 24.1651182 -1.2666759 25.75555863 -5 27 C-6.56118428 27.06740865 -8.1250252 27.08514456 -9.6875 27.0625 C-10.89986328 27.04896484 -10.89986328 27.04896484 -12.13671875 27.03515625 C-12.75160156 27.02355469 -13.36648437 27.01195313 -14 27 C-13.67 28.32 -13.34 29.64 -13 31 C-11.96359375 31.04898438 -10.9271875 31.09796875 -9.859375 31.1484375 C-8.48955792 31.22349597 -7.11976752 31.29904247 -5.75 31.375 C-5.06808594 31.4059375 -4.38617188 31.436875 -3.68359375 31.46875 C-0.03662334 31.68119488 2.96272575 31.87390803 6 34 C8.47862452 37.71793677 8.53102546 40.69279347 8 45 C6.63487043 48.41282392 5.53274453 49.66844298 2.4140625 51.609375 C-1.73808087 53.30063706 -5.0689534 53.48033085 -9.5 53.4375 C-10.60021484 53.4674707 -10.60021484 53.4674707 -11.72265625 53.49804688 C-17.28621124 53.49307053 -20.94096181 52.05903819 -25 48 C-25.51133273 42.80145059 -25.51133273 42.80145059 -25 40 C-22.5 37.5 -22.5 37.5 -20 36 C-20.66 35.34 -21.32 34.68 -22 34 C-21.625 30.375 -21.625 30.375 -21 27 C-19.68 26.67 -18.36 26.34 -17 26 C-17 25.34 -17 24.68 -17 24 C-17.99 23.67 -18.98 23.34 -20 23 C-22.66836411 18.99745384 -22.8340238 15.70686701 -22 11 C-19.81840855 8.24430553 -18.12822506 6.56411253 -15 5 C-12.7927077 4.92907158 -10.58332548 4.91584975 -8.375 4.9375 C-7.18648437 4.94652344 -5.99796875 4.95554687 -4.7734375 4.96484375 C-3.85820313 4.97644531 -2.94296875 4.98804688 -2 5 C-1.34 3.35 -0.68 1.7 0 0 Z " fill="#086839" transform="translate(90,46)"/>
<path d="M0 0 C2.64 0 5.28 0 8 0 C8 5.94 8 11.88 8 18 C9.98 16.68 11.96 15.36 14 14 C18.89396059 12.98539841 22.93909905 13.49848319 27.4375 15.625 C32.0924891 19.93938014 33.19199487 23.57983739 33.4375 29.8125 C33.25214613 36.58634142 31.83077831 42.25247988 26.875 47.0625 C22.06114671 48.63223477 16.74297045 49.24975577 12.01953125 47.09765625 C10.375 46 10.375 46 8 44 C8 45.32 8 46.64 8 48 C5.36 48 2.72 48 0 48 C0 32.16 0 16.32 0 0 Z " fill="#066738" transform="translate(244,37)"/>
<path d="M0 0 C2.72596487 1.80989232 4.53277847 3.06555694 6 6 C6.15123831 7.5195764 6.24881693 9.04472502 6.31640625 10.5703125 C6.35830078 11.46621094 6.40019531 12.36210938 6.44335938 13.28515625 C6.48267578 14.22230469 6.52199219 15.15945312 6.5625 16.125 C6.60568359 17.06988281 6.64886719 18.01476562 6.69335938 18.98828125 C6.79959072 21.32537092 6.90163176 23.6625683 7 26 C7.99 26.33 8.98 26.66 10 27 C10.04254356 28.99954746 10.04080783 31.00041636 10 33 C9 34 9 34 5.625 34.1875 C2 34 2 34 -1 32 C-1 31.34 -1 30.68 -1 30 C-1.598125 30.66 -2.19625 31.32 -2.8125 32 C-7.46142304 34.91697132 -11.65012458 34.89832991 -17 34 C-20.1875 32.0625 -20.1875 32.0625 -22 29 C-22.61102503 25.87821757 -22.80163042 23.09042347 -22 20 C-18.96218488 15.8970744 -15.58159743 15.00263637 -10.75 13.75 C-9.48671875 13.41484375 -8.2234375 13.0796875 -6.921875 12.734375 C-5.47554688 12.37085938 -5.47554688 12.37085938 -4 12 C-4 10.68 -4 9.36 -4 8 C-9.4883621 7.72093074 -12.3888663 7.74508209 -17 11 C-17.66 11 -18.32 11 -19 11 C-21 8 -21 8 -21 6.0625 C-19.82909369 3.64750574 -18.50421048 2.17514888 -16.2109375 0.765625 C-11.09289831 -1.00669952 -5.29272971 -0.84188449 0 0 Z " fill="#09693A" transform="translate(305,51)"/>
<path d="M0 0 C4.04698709 2.0814733 6.74380932 3.98899434 9 8 C9 11.63 9 15.26 9 19 C1.74 19 -5.52 19 -13 19 C-12.34 20.98 -11.68 22.96 -11 25 C-7.85658007 26.57170996 -4.44228549 26.23175783 -1 26 C-0.01 25.67 0.98 25.34 2 25 C2 24.34 2 23.68 2 23 C4.91517292 24.07401108 6.77810176 24.77810176 9 27 C6.58039512 30.28374948 4.83470471 32.54042381 1 34 C-4.8184969 34.64649966 -10.19078093 34.82525782 -15.5625 32.375 C-20.69855745 27.37063633 -22.27158055 24.23328251 -22.5 17 C-22.27120745 9.75490256 -20.71842163 6.58250055 -15.5 1.625 C-10.43780554 -0.72530457 -5.49675939 -0.82118478 0 0 Z " fill="#066738" transform="translate(407,51)"/>
<path d="M0 0 C4.35805636 1.54899609 5.91718792 3.83437584 8 8 C8 11.63 8 15.26 8 19 C0.74 19 -6.52 19 -14 19 C-13.67 20.98 -13.34 22.96 -13 25 C-9.26274081 26.24575306 -5.91147543 26.48893443 -2 26 C0.009245 24.66641006 0.009245 24.66641006 1 23 C2.98 23.66 4.96 24.32 7 25 C7 29 7 29 5.1875 31.1875 C0.11683891 35.3889049 -6.76190167 34.53008471 -13 34 C-17.88450395 31.94336676 -20.20207165 29.01040805 -22.30859375 24.27734375 C-23.93843802 18.90898665 -23.77177299 13.38350855 -21.8125 8.125 C-16.66619918 -0.74793245 -9.40166626 -0.83392666 0 0 Z " fill="#066637" transform="translate(188,51)"/>
<path d="M0 0 C4.35805636 1.54899609 5.91718792 3.83437584 8 8 C8 11.63 8 15.26 8 19 C0.74 19 -6.52 19 -14 19 C-13.67 20.98 -13.34 22.96 -13 25 C-9.26274081 26.24575306 -5.91147543 26.48893443 -2 26 C0.009245 24.66641006 0.009245 24.66641006 1 23 C2.98 23.66 4.96 24.32 7 25 C7 29 7 29 5.1875 31.1875 C0.11683891 35.3889049 -6.76190167 34.53008471 -13 34 C-17.88450395 31.94336676 -20.20207165 29.01040805 -22.30859375 24.27734375 C-23.93843802 18.90898665 -23.77177299 13.38350855 -21.8125 8.125 C-16.66619918 -0.74793245 -9.40166626 -0.83392666 0 0 Z " fill="#066637" transform="translate(151,51)"/>
<path d="M0 0 C2.64 0 5.28 0 8 0 C8.33 8.58 8.66 17.16 9 26 C10.299375 24.02 11.59875 22.04 12.9375 20 C16.91564184 14.33214574 16.91564184 14.33214574 20.6015625 13.203125 C22.84614335 13.24587892 24.8274776 13.44531343 27 14 C25.59601721 18.10110762 23.62912962 20.98089159 20.875 24.3125 C20.15054687 25.19550781 19.42609375 26.07851563 18.6796875 26.98828125 C18.12539063 27.65214844 17.57109375 28.31601563 17 29 C18.80443796 33.11702225 21.48773779 36.57880927 24.125 40.1875 C29 46.86880165 29 46.86880165 29 48 C25.38715578 48.8993676 22.58984086 49.07210112 19 48 C14.88393593 44.39084718 11.9467566 39.56433788 9 35 C8.67 39.29 8.34 43.58 8 48 C5.36 48 2.72 48 0 48 C0 32.16 0 16.32 0 0 Z " fill="#056637" transform="translate(353,37)"/>
<path d="M0 0 C2.64 0 5.28 0 8 0 C8.33 1.32 8.66 2.64 9 4 C9.598125 3.34 10.19625 2.68 10.8125 2 C15.43224107 -0.89866106 19.6790047 -0.95074841 25 0 C27.89683868 2.2015974 29.39297231 3.78594462 31 7 C31.08527628 9.03232634 31.10716135 11.06747006 31.09765625 13.1015625 C31.09443359 14.31328125 31.09121094 15.525 31.08789062 16.7734375 C31.07951172 18.04445313 31.07113281 19.31546875 31.0625 20.625 C31.05798828 21.90375 31.05347656 23.1825 31.04882812 24.5 C31.03701203 27.66671292 31.02053815 30.83333356 31 34 C28.03 34 25.06 34 22 34 C21.97494385 33.2479126 21.9498877 32.4958252 21.92407227 31.72094727 C21.80849486 28.33460804 21.68559655 24.94857387 21.5625 21.5625 C21.52318359 20.37849609 21.48386719 19.19449219 21.44335938 17.97460938 C21.40146484 16.84990234 21.35957031 15.72519531 21.31640625 14.56640625 C21.27974854 13.52427979 21.24309082 12.48215332 21.20532227 11.40844727 C21.26484659 9.0500174 21.26484659 9.0500174 20 8 C15.40817661 7.50455809 15.40817661 7.50455809 11.30541992 9.18286133 C9.54898497 11.62781089 9.57102259 13.32898239 9.48828125 16.32421875 C9.45283203 17.35224609 9.41738281 18.38027344 9.38085938 19.43945312 C9.34702148 21.04723633 9.34702148 21.04723633 9.3125 22.6875 C9.27833984 23.77095703 9.24417969 24.85441406 9.20898438 25.97070312 C9.1264544 28.6470322 9.05732063 31.32303159 9 34 C6.03 34 3.06 34 0 34 C0 22.78 0 11.56 0 0 Z " fill="#0C6A3D" transform="translate(204,51)"/>
<path d="M0 0 C4.93010287 0.14939706 7.19384443 2.78572568 10.44921875 6.11328125 C13.08852304 9.32432401 14.19887271 12.06381179 14.5625 16.1875 C14.57461534 19.78190939 14.57461534 19.78190939 16 21 C16.68096227 27.10246958 15.77133606 31.57280022 13 37 C12.01 37 11.02 37 10 37 C10 37.66 10 38.32 10 39 C11.32 39.66 12.64 40.32 14 41 C14 41.33 14 41.66 14 42 C8.21512232 42.82546771 2.59074802 43.18263271 -3.25 43.1875 C-4.03890625 43.19974609 -4.8278125 43.21199219 -5.640625 43.22460938 C-12.70272256 43.2425032 -12.70272256 43.2425032 -16 41 C-15.3125 39.0625 -15.3125 39.0625 -14 37 C-11.375 36.25 -11.375 36.25 -9 36 C-10.65 35.67 -12.3 35.34 -14 35 C-13.67 34.01 -13.34 33.02 -13 32 C-13 32.66 -13 33.32 -13 34 C-12.34 34 -11.68 34 -11 34 C-11 33.34 -11 32.68 -11 32 C-7.04 32 -3.08 32 1 32 C1 33.32 1 34.64 1 36 C4.465 36.495 4.465 36.495 8 37 C8 36.34 8 35.68 8 35 C5.03 35.495 5.03 35.495 2 36 C2 34.68 2 33.36 2 32 C4 32 6 32 8 32 C8 31.34 8 30.68 8 30 C4.04 30 0.08 30 -4 30 C-4.33 28.68 -4.66 27.36 -5 26 C-4.67 25.67 -4.34 25.34 -4 25 C-2.04814929 25 -0.09617922 25.00311814 1.85546875 25.03125 C4.6354242 24.99074063 7.2782576 24.54434848 10 24 C9.28436734 21.9837767 9.28436734 21.9837767 8 20 C5.94999129 19.19471111 5.94999129 19.19471111 4 19 C4 18.01 4 17.02 4 16 C5.32 15.67 6.64 15.34 8 15 C8 13.35 8 11.7 8 10 C5.02425724 9.29733387 5.02425724 9.29733387 2 9 C1.67 11.64 1.34 14.28 1 17 C0.01 17 -0.98 17 -2 17 C-2.25060425 15.10688117 -2.47460633 13.21022961 -2.6875 11.3125 C-2.81511719 10.25675781 -2.94273438 9.20101562 -3.07421875 8.11328125 C-2.98881298 4.53073409 -2.070838 2.86936166 0 0 Z " fill="#E2D3A9" transform="translate(38,54)"/>
<path d="M0 0 C1.54300781 -0.03867187 1.54300781 -0.03867187 3.1171875 -0.078125 C6.57532326 0.29912617 8.4373282 1.048291 11.125 3.25 C11.125 4.57 11.125 5.89 11.125 7.25 C9.125 9 9.125 9 7.125 10.25 C6.135 9.59 5.145 8.93 4.125 8.25 C2.06790404 8.00944532 2.06790404 8.00944532 -0.0625 8.125 C-1.320625 8.16625 -2.57875 8.2075 -3.875 8.25 C-4.205 9.57 -4.535 10.89 -4.875 12.25 C-3.55435547 12.50523438 -3.55435547 12.50523438 -2.20703125 12.765625 C-1.04558594 13.00796875 0.11585938 13.2503125 1.3125 13.5 C2.46105469 13.73203125 3.60960937 13.9640625 4.79296875 14.203125 C8.42567003 15.34446608 10.47508749 16.52647881 13.125 19.25 C14.00780649 22.31514798 13.73589287 25.13444637 13.125 28.25 C11.01108123 31.74890004 10.00763941 32.95578686 6.125 34.25 C-6.19565035 35.25341745 -6.19565035 35.25341745 -10.6875 32.5 C-12.875 30.25 -12.875 30.25 -12.875 26.25 C-10.875 24.5 -10.875 24.5 -8.875 23.25 C-8.235625 23.745 -7.59625 24.24 -6.9375 24.75 C-2.83476517 26.75950277 0.63943582 26.51385672 5.125 26.25 C5.07382624 24.28177511 5.07382624 24.28177511 4.125 22.25 C1.51676891 21.0610219 1.51676891 21.0610219 -1.625 20.3125 C-6.53842484 18.80337666 -9.95711075 17.73104421 -12.875 13.25 C-13.56077608 8.98294881 -13.37523114 7.04347009 -11.0625 3.375 C-7.6289011 0.03950392 -4.60384373 0.06888544 0 0 Z " fill="#076739" transform="translate(331.875,50.75)"/>
<path d="M0 0 C0 2.64 0 5.28 0 8 C3.3 8 6.6 8 10 8 C10 10.31 10 12.62 10 15 C6.7 15 3.4 15 0 15 C0.14017826 17.97953359 0.28686342 20.95849304 0.4375 23.9375 C0.47681641 24.78763672 0.51613281 25.63777344 0.55664062 26.51367188 C0.61948242 27.72700195 0.61948242 27.72700195 0.68359375 28.96484375 C0.72025146 29.7137085 0.75690918 30.46257324 0.79467773 31.23413086 C0.81771063 33.02461326 0.81771063 33.02461326 2 34 C3.7015625 33.938125 3.7015625 33.938125 5.4375 33.875 C6.613125 33.91625 7.78875 33.9575 9 34 C11 37 11 37 11 41 C8.33963926 42.33018037 6.15744618 42.31665139 3.1875 42.4375 C1.63095703 42.52837891 1.63095703 42.52837891 0.04296875 42.62109375 C-3.37395062 41.92367375 -5.00549971 40.82186375 -7.08227539 38.00317383 C-8.96008701 33.90435915 -8.506882 29.53896674 -8.3125 25.125 C-8.28994141 24.15046875 -8.26738281 23.1759375 -8.24414062 22.171875 C-8.18550753 19.77964485 -8.10351153 17.3906385 -8 15 C-9.65 15 -11.3 15 -13 15 C-13 12.69 -13 10.38 -13 8 C-11.35 8 -9.7 8 -8 8 C-8 5.69 -8 3.38 -8 1 C-5.23735711 0.40267181 -2.83967231 0 0 0 Z " fill="#036435" transform="translate(433,43)"/>
<path d="M0 0 C2.64 0 5.28 0 8 0 C8.33 1.32 8.66 2.64 9 4 C9.495 3.34 9.99 2.68 10.5 2 C14.10340212 -0.8827217 16.46985042 -0.30200997 21 0 C20.67 2.64 20.34 5.28 20 8 C18.906875 7.979375 17.81375 7.95875 16.6875 7.9375 C13.05615809 7.81455548 13.05615809 7.81455548 10 9 C8.88720637 11.9180826 8.81587274 14.88526713 8.68359375 17.984375 C8.64169922 18.91894531 8.59980469 19.85351562 8.55664062 20.81640625 C8.49766602 22.26853516 8.49766602 22.26853516 8.4375 23.75 C8.39431641 24.73355469 8.35113281 25.71710938 8.30664062 26.73046875 C8.20077948 29.15351275 8.09869829 31.5766554 8 34 C5.36 34 2.72 34 0 34 C0 22.78 0 11.56 0 0 Z " fill="#046536" transform="translate(104,51)"/>
<path d="M0 0 C-0.99 3.3 -1.98 6.6 -3 10 C-0.69 10.66 1.62 11.32 4 12 C3.6875 13.875 3.6875 13.875 3 16 C-0.68717438 18.45811625 -2.64345704 18.31118164 -7 18 C-7.99 17.34 -8.98 16.68 -10 16 C-10 18.31 -10 20.62 -10 23 C-10.99 23.33 -11.98 23.66 -13 24 C-13 21.69 -13 19.38 -13 17 C-14.093125 16.9175 -15.18625 16.835 -16.3125 16.75 C-20 16 -20 16 -21.9375 14.1875 C-23 12 -23 12 -23 8 C-16.375 7.75 -16.375 7.75 -13 10 C-12.7525 8.906875 -12.505 7.81375 -12.25 6.6875 C-11 3 -11 3 -9.3125 1.0625 C-6.14094996 -0.39469867 -3.44315277 -0.19864343 0 0 Z " fill="#6B9F65" transform="translate(48,32)"/>
<path d="M0 0 C4.10770068 0.58681438 5.00583971 1.27479273 7.5 4.5 C8.03125 7.375 8.03125 7.375 8 10.5 C8.0103125 11.53125 8.020625 12.5625 8.03125 13.625 C7.37726377 17.16421962 6.34226755 18.34799743 3.5 20.5 C0 21 0 21 -3.5 20.5 C-6.34226755 18.34799743 -7.37726377 17.16421962 -8.03125 13.625 C-8.0209375 12.59375 -8.010625 11.5625 -8 10.5 C-8.0103125 9.46875 -8.020625 8.4375 -8.03125 7.375 C-7.11934639 2.43999221 -4.86070114 0.69438588 0 0 Z " fill="#F7FAF8" transform="translate(260.5,57.5)"/>
<path d="M0 0 C0.33 0.66 0.66 1.32 1 2 C1.66 2 2.32 2 3 2 C3 1.34 3 0.68 3 0 C6.96 0 10.92 0 15 0 C15 1.32 15 2.64 15 4 C17.97 4.33 20.94 4.66 24 5 C24 5.66 24 6.32 24 7 C25.32 7.66 26.64 8.32 28 9 C28 9.33 28 9.66 28 10 C22.21512232 10.82546771 16.59074802 11.18263271 10.75 11.1875 C9.96109375 11.19974609 9.1721875 11.21199219 8.359375 11.22460938 C1.29727744 11.2425032 1.29727744 11.2425032 -2 9 C-1.3125 7.0625 -1.3125 7.0625 0 5 C2.625 4.25 2.625 4.25 5 4 C3.35 3.67 1.7 3.34 0 3 C0 2.01 0 1.02 0 0 Z " fill="#BBB193" transform="translate(24,86)"/>
<path d="M0 0 C1.32 0.66 2.64 1.32 4 2 C3.67 4.64 3.34 7.28 3 10 C7.455 9.505 7.455 9.505 12 9 C11.67 7.02 11.34 5.04 11 3 C16.94 3 22.88 3 29 3 C29.33 3.66 29.66 4.32 30 5 C24.9752761 5.62529897 20.07471573 6.13012092 15 6 C15 6.99 15 7.98 15 9 C18.96 9.33 22.92 9.66 27 10 C27 10.66 27 11.32 27 12 C26.34 12 25.68 12 25 12 C24.67 12.66 24.34 13.32 24 14 C23.01 13.34 22.02 12.68 21 12 C21 13.32 21 14.64 21 16 C22.98 15.67 24.96 15.34 27 15 C27 15.66 27 16.32 27 17 C24.36 17 21.72 17 19 17 C19.33 15.35 19.66 13.7 20 12 C17.03 12 14.06 12 11 12 C10.67 12.66 10.34 13.32 10 14 C10 13.34 10 12.68 10 12 C9.34 12 8.68 12 8 12 C8 12.66 8 13.32 8 14 C7.01 14.33 6.02 14.66 5 15 C7.31 15.33 9.62 15.66 12 16 C12 16.33 12 16.66 12 17 C9.69 17 7.38 17 5 17 C4.01 19.475 4.01 19.475 3 22 C2.34 21.67 1.68 21.34 1 21 C1.66 20.01 2.32 19.02 3 18 C2.34 16.865625 1.68 15.73125 1 14.5625 C-1.27956658 10.05169687 -1.66603726 5.98982015 -1 1 C-0.67 0.67 -0.34 0.34 0 0 Z " fill="#EDE6C3" transform="translate(19,74)"/>
<path d="M0 0 C1.76537109 -0.00386719 1.76537109 -0.00386719 3.56640625 -0.0078125 C6.4375 0.125 6.4375 0.125 7.4375 1.125 C7.625 3.5625 7.625 3.5625 7.4375 6.125 C5.4375 8.125 5.4375 8.125 2.6875 8.390625 C1.615 8.38546875 0.5425 8.3803125 -0.5625 8.375 C-2.17125 8.38273437 -2.17125 8.38273437 -3.8125 8.390625 C-6.5625 8.125 -6.5625 8.125 -8.5625 6.125 C-8.6875 3.5 -8.6875 3.5 -8.5625 1.125 C-5.69616205 -0.30816898 -3.19014499 -0.00700361 0 0 Z " fill="#F9FBFA" transform="translate(81.5625,84.875)"/>
<path d="M0 0 C2.375 0.3125 2.375 0.3125 5 1 C5.66 1.99 6.32 2.98 7 4 C6.67 4.66 6.34 5.32 6 6 C6.639375 6.185625 7.27875 6.37125 7.9375 6.5625 C10 8 10 8 10.9375 11.4375 C11 15 11 15 9.8125 17 C8 18 8 18 5.8125 17.6875 C5.214375 17.460625 4.61625 17.23375 4 17 C5.32 16.34 6.64 15.68 8 15 C8 13.35 8 11.7 8 10 C5.02425724 9.29733387 5.02425724 9.29733387 2 9 C1.67 11.64 1.34 14.28 1 17 C0.01 17 -0.98 17 -2 17 C-2.25060425 15.10688117 -2.47460633 13.21022961 -2.6875 11.3125 C-2.81511719 10.25675781 -2.94273438 9.20101562 -3.07421875 8.11328125 C-2.98881298 4.53073409 -2.070838 2.86936166 0 0 Z " fill="#DEE1B6" transform="translate(38,54)"/>
<path d="M0 0 C4.56821806 -0.17914581 7.85107014 0.04756242 12 2 C12.33 2 12.66 2 13 2 C14.0161692 6.62921525 13.83796731 10.34462607 13 15 C12.01 15.33 11.02 15.66 10 16 C10 13.69 10 11.38 10 9 C8.906875 8.9175 7.81375 8.835 6.6875 8.75 C3 8 3 8 1.0625 6.1875 C0 4 0 4 0 0 Z " fill="#6C9E6D" transform="translate(25,40)"/>
<path d="M0 0 C0.66 0.33 1.32 0.66 2 1 C2.73075648 3.3140622 3.40138258 5.64828869 4 8 C2.35 8 0.7 8 -1 8 C-1 9.65 -1 11.3 -1 13 C1.475 13.99 1.475 13.99 4 15 C2 17 2 17 -0.4375 17.375 C-3 17 -3 17 -4.625 15.0625 C-5.07875 14.381875 -5.5325 13.70125 -6 13 C-6.99 12.67 -7.98 12.34 -9 12 C-7.72210402 6.03648545 -4.66283606 3.51582826 0 0 Z " fill="#BEC584" transform="translate(30,55)"/>
<path d="M0 0 C0.23312509 3.34145968 0.10501612 5.71583874 -1.0625 8.875 C-3 11 -3 11 -6.5625 11.4375 C-10 11 -10 11 -12 9 C-11.67028521 5.70285207 -11.3773161 4.3773161 -9 2 C-2.77777778 0 -2.77777778 0 0 0 Z " fill="#EEF4F1" transform="translate(303,68)"/>
<path d="M0 0 C1.32 0.66 2.64 1.32 4 2 C3.67 4.64 3.34 7.28 3 10 C4.32 10.33 5.64 10.66 7 11 C6 14 6 14 5 15 C7.31 15.33 9.62 15.66 12 16 C12 16.33 12 16.66 12 17 C9.69 17 7.38 17 5 17 C4.01 19.475 4.01 19.475 3 22 C2.34 21.67 1.68 21.34 1 21 C1.66 20.01 2.32 19.02 3 18 C2.34 16.865625 1.68 15.73125 1 14.5625 C-1.27956658 10.05169687 -1.66603726 5.98982015 -1 1 C-0.67 0.67 -0.34 0.34 0 0 Z " fill="#E1DEBF" transform="translate(19,74)"/>
<path d="M0 0 C3.4375 0.1875 3.4375 0.1875 4.4375 1.1875 C4.625 4.625 4.625 4.625 4.4375 8.1875 C2.4375 10.1875 2.4375 10.1875 -0.5625 10.4375 C-3.5625 10.1875 -3.5625 10.1875 -5.5625 8.1875 C-5.8125 5.1875 -5.8125 5.1875 -5.5625 2.1875 C-3.5625 0.1875 -3.5625 0.1875 0 0 Z " fill="#F4F8F6" transform="translate(81.5625,56.8125)"/>
<path d="M0 0 C7.59 0.33 15.18 0.66 23 1 C23.33 1.99 23.66 2.98 24 4 C15.85333864 5.81036919 7.17719464 5.48676266 -1 4 C-0.67 2.68 -0.34 1.36 0 0 Z " fill="#72A75C" transform="translate(24,91)"/>
<path d="M0 0 C1.58206057 0.00667536 3.16410534 0.0186375 4.74609375 0.03515625 C5.55240234 0.03966797 6.35871094 0.04417969 7.18945312 0.04882812 C9.18753131 0.06065107 11.18557158 0.07858711 13.18359375 0.09765625 C12.30859375 3.97265625 12.30859375 3.97265625 11.18359375 5.09765625 C8.65309973 5.17079192 6.15054538 5.19013152 3.62109375 5.16015625 C2.91017578 5.15564453 2.19925781 5.15113281 1.46679688 5.14648438 C-0.29430638 5.13466489 -2.05536661 5.11672888 -3.81640625 5.09765625 C-4.37890625 3.16015625 -4.37890625 3.16015625 -4.81640625 1.09765625 C-3.81640625 0.09765625 -3.81640625 0.09765625 0 0 Z " fill="#9DAF72" transform="translate(37.81640625,78.90234375)"/>
<path d="M0 0 C3.28186266 0.56583839 4.89184922 1.41272404 7 4 C8.70538734 6.94624753 9.32668385 9.3690836 9.625 12.75 C9.69976562 13.54921875 9.77453125 14.3484375 9.8515625 15.171875 C9.92503906 16.07679687 9.92503906 16.07679687 10 17 C9.34 17 8.68 17 8 17 C8 17.66 8 18.32 8 19 C6.35 18.67 4.7 18.34 3 18 C3 17.34 3 16.68 3 16 C1.68 15.67 0.36 15.34 -1 15 C-0.67 14.34 -0.34 13.68 0 13 C1.32303717 12.6278958 2.65737935 12.29369827 4 12 C5.41577477 10.81575674 5.41577477 10.81575674 5.0625 7.4375 C5.041875 6.303125 5.02125 5.16875 5 4 C3.35 3.67 1.7 3.34 0 3 C0 2.01 0 1.02 0 0 Z " fill="#DCB18F" transform="translate(43,58)"/>
<path d="M0 0 C-0.60698743 4.12751449 -2.03810791 7.3321148 -4 11 C-2.35 11.33 -0.7 11.66 1 12 C1 11.34 1 10.68 1 10 C2.65 9.67 4.3 9.34 6 9 C5.125 12.875 5.125 12.875 4 14 C-2.32107023 14.46822742 -2.32107023 14.46822742 -4.8125 12.75 C-7.59346875 8.65173026 -8.22890781 6.03597173 -8 1 C-7.34 1.66 -6.68 2.32 -6 3 C-5.566875 2.505 -5.13375 2.01 -4.6875 1.5 C-3 0 -3 0 0 0 Z " fill="#71A66A" transform="translate(44,36)"/>
<path d="M0 0 C1.19109375 0.00773437 1.19109375 0.00773437 2.40625 0.015625 C3.2003125 0.01046875 3.994375 0.0053125 4.8125 0 C6.90625 0.265625 6.90625 0.265625 8.90625 2.265625 C8.90625 3.585625 8.90625 4.905625 8.90625 6.265625 C4.28625 6.265625 -0.33375 6.265625 -5.09375 6.265625 C-3.64288295 0.46215679 -3.64288295 0.46215679 0 0 Z " fill="#F4F8F6" transform="translate(179.09375,57.734375)"/>
<path d="M0 0 C1.19109375 0.00773437 1.19109375 0.00773437 2.40625 0.015625 C3.2003125 0.01046875 3.994375 0.0053125 4.8125 0 C6.90625 0.265625 6.90625 0.265625 8.90625 2.265625 C8.90625 3.585625 8.90625 4.905625 8.90625 6.265625 C4.28625 6.265625 -0.33375 6.265625 -5.09375 6.265625 C-3.64288295 0.46215679 -3.64288295 0.46215679 0 0 Z " fill="#F4F8F6" transform="translate(142.09375,57.734375)"/>
<path d="M0 0 C2.68636205 0.06825602 3.78157595 0.12814359 6.0625 1.625 C7.0625 3.3125 7.0625 3.3125 7.0625 6.3125 C2.4425 6.3125 -2.1775 6.3125 -6.9375 6.3125 C-5.63502704 1.10260817 -5.39081895 0.42784277 0 0 Z " fill="#F7FAF9" transform="translate(400.9375,57.6875)"/>
<path d="M0 0 C1.65 0 3.3 0 5 0 C5 0.66 5 1.32 5 2 C6.32 2.66 7.64 3.32 9 4 C9 4.33 9 4.66 9 5 C3.21512232 5.82546771 -2.40925198 6.18263271 -8.25 6.1875 C-9.43335938 6.20586914 -9.43335938 6.20586914 -10.640625 6.22460938 C-17.70272256 6.2425032 -17.70272256 6.2425032 -21 4 C-15.25 2.875 -15.25 2.875 -13 4 C-11.06449136 4.09720427 -9.12544208 4.12977914 -7.1875 4.125 C-6.14980469 4.12757812 -5.11210938 4.13015625 -4.04296875 4.1328125 C-1.24657058 4.01076175 1.27939879 3.63363355 4 3 C4 2.34 4 1.68 4 1 C2.68 0.67 1.36 0.34 0 0 Z " fill="#BAD090" transform="translate(43,91)"/>
<path d="M0 0 C1.32 0 2.64 0 4 0 C3.938125 0.78375 3.87625 1.5675 3.8125 2.375 C3.874375 3.24125 3.93625 4.1075 4 5 C4.99 5.66 5.98 6.32 7 7 C7 7.99 7 8.98 7 10 C1.25 9.125 1.25 9.125 -1 8 C-1.04241723 5.66705225 -1.04092937 3.33297433 -1 1 C-0.67 0.67 -0.34 0.34 0 0 Z " fill="#BBC176" transform="translate(21,67)"/>
<path d="M0 0 C0.99 0.33 1.98 0.66 3 1 C2.34 1 1.68 1 1 1 C1.33 1.66 1.66 2.32 2 3 C2.5775 2.484375 3.155 1.96875 3.75 1.4375 C6 0 6 0 8.25 0.3125 C8.8275 0.539375 9.405 0.76625 10 1 C9.67 2.65 9.34 4.3 9 6 C6.03 6 3.06 6 0 6 C0 4.02 0 2.04 0 0 Z " fill="#8DA264" transform="translate(22,78)"/>
<path d="M0 0 C0.99 0 1.98 0 3 0 C3.05422947 1.4370809 3.09289723 2.87475462 3.125 4.3125 C3.14820313 5.11300781 3.17140625 5.91351563 3.1953125 6.73828125 C3 9 3 9 1 12 C1 11.01 1 10.02 1 9 C0.01 9 -0.98 9 -2 9 C-1.79375 8.401875 -1.5875 7.80375 -1.375 7.1875 C-0.69328085 4.71549154 -0.69328085 4.71549154 -3 2 C-2.01 2 -1.02 2 0 2 C0 1.34 0 0.68 0 0 Z " fill="#D6D3A5" transform="translate(51,75)"/>
<path d="M0 0 C0.99 0.33 1.98 0.66 3 1 C2.67 1.66 2.34 2.32 2 3 C3.65 3.33 5.3 3.66 7 4 C7 3.34 7 2.68 7 2 C8.65 1.67 10.3 1.34 12 1 C11.125 4.875 11.125 4.875 10 6 C3.6899841 6.46740859 3.6899841 6.46740859 1.0625 4.6875 C0 3 0 3 0 0 Z " fill="#619761" transform="translate(38,44)"/>
<path d="M0 0 C-3 1 -3 1 -5 1 C-5 2.65 -5 4.3 -5 6 C-2.525 6.99 -2.525 6.99 0 8 C-0.66 8.66 -1.32 9.32 -2 10 C-4.93453261 9.63318342 -5.86437246 9.13562754 -8 7 C-7.75 3.4375 -7.75 3.4375 -7 0 C-4.3333581 -1.33332095 -2.83319697 -0.67102033 0 0 Z " fill="#E7E8E5" transform="translate(34,62)"/>
<path d="M0 0 C0.99 0.33 1.98 0.66 3 1 C3 2.65 3 4.3 3 6 C0.625 6.625 0.625 6.625 -2 7 C-2.66 6.34 -3.32 5.68 -4 5 C-3.625 2.875 -3.625 2.875 -3 1 C-3 1.66 -3 2.32 -3 3 C-2.01 3 -1.02 3 0 3 C0 2.01 0 1.02 0 0 Z " fill="#3F5C50" transform="translate(44,63)"/>
<path d="M0 0 C1.32 0.66 2.64 1.32 4 2 C3.34 4.64 2.68 7.28 2 10 C1.01 10 0.02 10 -1 10 C-1.02689216 8.52093108 -1.04634621 7.04172517 -1.0625 5.5625 C-1.07410156 4.73878906 -1.08570312 3.91507812 -1.09765625 3.06640625 C-1 1 -1 1 0 0 Z " fill="#E9E8CF" transform="translate(19,74)"/>
<path d="M0 0 C6.27 0 12.54 0 19 0 C19.33 0.99 19.66 1.98 20 3 C13.25 3.125 13.25 3.125 11 2 C9.12943209 1.7724985 7.25314042 1.59037189 5.375 1.4375 C4.37210938 1.35371094 3.36921875 1.26992187 2.3359375 1.18359375 C1.56507812 1.12300781 0.79421875 1.06242187 0 1 C0 0.67 0 0.34 0 0 Z " fill="#669D50" transform="translate(28,92)"/>
<path d="M0 0 C0.66 0 1.32 0 2 0 C2 0.99 2 1.98 2 3 C3.32 2.67 4.64 2.34 6 2 C5.67 3.65 5.34 5.3 5 7 C3.35 6.67 1.7 6.34 0 6 C-1.125 2.25 -1.125 2.25 0 0 Z " fill="#4A6759" transform="translate(29,63)"/>
<path d="M0 0 C-1.62339805 1.70884005 -3.29319053 3.37446717 -5 5 C-5.66 5 -6.32 5 -7 5 C-7.33 6.32 -7.66 7.64 -8 9 C-8.66 7.35 -9.32 5.7 -10 4 C-6.58908673 0.88145073 -4.68377325 -0.53528837 0 0 Z " fill="#89B482" transform="translate(46,32)"/>
<path d="M0 0 C1.32 0 2.64 0 4 0 C4 0.66 4 1.32 4 2 C4.66 2.33 5.32 2.66 6 3 C5.34 4.65 4.68 6.3 4 8 C3.01 7.67 2.02 7.34 1 7 C0.67 4.69 0.34 2.38 0 0 Z " fill="#C7D388" transform="translate(31,54)"/>
<path d="M0 0 C2.9375 0.8125 2.9375 0.8125 6 2 C6.33 2.99 6.66 3.98 7 5 C3.7 4.67 0.4 4.34 -3 4 C-2.01 2.68 -1.02 1.36 0 0 Z " fill="#DCDC9C" transform="translate(40,72)"/>
<path d="M0 0 C3.96 0 7.92 0 12 0 C12.33 0.66 12.66 1.32 13 2 C11.58566794 2.2236337 10.16832382 2.42826476 8.75 2.625 C7.96109375 2.74101563 7.1721875 2.85703125 6.359375 2.9765625 C3.67847541 3.00319395 2.27305911 2.36592084 0 1 C0 0.67 0 0.34 0 0 Z " fill="#F5EFC8" transform="translate(36,77)"/>
<path d="M0 0 C6.52307692 -0.36923077 6.52307692 -0.36923077 8.9375 1.5 C9.288125 1.995 9.63875 2.49 10 3 C7.1875 3.625 7.1875 3.625 4 4 C3.01 3.34 2.02 2.68 1 2 C0.67 2.66 0.34 3.32 0 4 C0 2.68 0 1.36 0 0 Z " fill="#90B88B" transform="translate(25,40)"/>
<path d="M0 0 C-0.33 1.32 -0.66 2.64 -1 4 C-2.65 4.33 -4.3 4.66 -6 5 C-6.33 3.68 -6.66 2.36 -7 1 C-4 0 -4 0 0 0 Z " fill="#889D5C" transform="translate(51,79)"/>
<path d="M0 0 C1.65 0 3.3 0 5 0 C5 0.66 5 1.32 5 2 C6.32 2.66 7.64 3.32 9 4 C9 4.33 9 4.66 9 5 C5.7 5 2.4 5 -1 5 C0.32 4.34 1.64 3.68 3 3 C3.33 2.34 3.66 1.68 4 1 C2.68 0.67 1.36 0.34 0 0 Z " fill="#A5BF7A" transform="translate(43,91)"/>
<path d="M0 0 C1.65 0 3.3 0 5 0 C5 2.64 5 5.28 5 8 C4.01 8.495 4.01 8.495 3 9 C3 7.35 3 5.7 3 4 C2.01 4 1.02 4 0 4 C0 2.68 0 1.36 0 0 Z " fill="#BDC2B7" transform="translate(31,62)"/>
<path d="M0 0 C1.2065625 0.0309375 1.2065625 0.0309375 2.4375 0.0625 C2.1075 1.3825 1.7775 2.7025 1.4375 4.0625 C0.4475 4.0625 -0.5425 4.0625 -1.5625 4.0625 C-1.2325 5.7125 -0.9025 7.3625 -0.5625 9.0625 C-1.5525 8.4025 -2.5425 7.7425 -3.5625 7.0625 C-3.8125 4 -3.8125 4 -3.5625 1.0625 C-2.5625 0.0625 -2.5625 0.0625 0 0 Z " fill="#ACB2A5" transform="translate(42.5625,61.9375)"/>
<path d="M0 0 C5.75 -0.125 5.75 -0.125 8 1 C7.34 2.32 6.68 3.64 6 5 C5.67 4.34 5.34 3.68 5 3 C3.02 3 1.04 3 -1 3 C-0.67 2.01 -0.34 1.02 0 0 Z " fill="#86B181" transform="translate(44,43)"/>
<path d="M0 0 C2.23288365 0.38497994 3.83656302 0.89493337 5.75 2.125 C7.66497267 4.99745901 7.18991495 7.64483583 7 11 C6.67 11 6.34 11 6 11 C5.67 8.69 5.34 6.38 5 4 C3.35 3.67 1.7 3.34 0 3 C0 2.01 0 1.02 0 0 Z " fill="#A4AE85" transform="translate(43,58)"/>
<path d="M0 0 C2.97 0.33 5.94 0.66 9 1 C8.01 1.495 8.01 1.495 7 2 C7 2.66 7 3.32 7 4 C5.35 3.67 3.7 3.34 2 3 C2 2.34 2 1.68 2 1 C1.34 0.67 0.68 0.34 0 0 Z " fill="#C8B87E" transform="translate(44,73)"/>
<path d="M0 0 C3 0 6 0 9 0 C7.02579865 2.52259061 6.03254358 2.9929808 2.8125 3.6875 C1.4203125 3.8421875 1.4203125 3.8421875 0 4 C0 2.68 0 1.36 0 0 Z " fill="#9D8972" transform="translate(40,86)"/>
<path d="M0 0 C2.31 0 4.62 0 7 0 C7 0.66 7 1.32 7 2 C4.69 3.32 2.38 4.64 0 6 C0 4.02 0 2.04 0 0 Z " fill="#CCD5A0" transform="translate(23,76)"/>
<path d="M0 0 C0.33 1.32 0.66 2.64 1 4 C-1.64 3.67 -4.28 3.34 -7 3 C-6.67 2.34 -6.34 1.68 -6 1 C-2.9375 0.375 -2.9375 0.375 0 0 Z " fill="#81B07B" transform="translate(37,42)"/>
<path d="M0 0 C0.66 0 1.32 0 2 0 C2 2.31 2 4.62 2 7 C1.01 7.33 0.02 7.66 -1 8 C-0.67 5.36 -0.34 2.72 0 0 Z " fill="#8FB087" transform="translate(36,48)"/>
<path d="M0 0 C6.75 0.875 6.75 0.875 9 2 C6 4 6 4 2.8125 3.625 C1.884375 3.41875 0.95625 3.2125 0 3 C0 2.01 0 1.02 0 0 Z " fill="#E2B390" transform="translate(25,70)"/>
<path d="M0 0 C0.66 0.33 1.32 0.66 2 1 C2 3.64 2 6.28 2 9 C1.34 9 0.68 9 0 9 C-0.84454356 5.62182575 -1.10844919 3.32534757 0 0 Z " fill="#D3D6A0" transform="translate(50,65)"/>
<path d="M0 0 C0 0.99 0 1.98 0 3 C-1.98 3.66 -3.96 4.32 -6 5 C-5.625 3.0625 -5.625 3.0625 -5 1 C-3 0 -3 0 0 0 Z " fill="#969F63" transform="translate(32,58)"/>
</svg>
