<?xml version="1.0" encoding="UTF-8"?>
<svg version="1.1" xmlns="http://www.w3.org/2000/svg" width="268" height="303">
<path d="M0 0 C88.44 0 176.88 0 268 0 C268 99.99 268 199.98 268 303 C179.56 303 91.12 303 0 303 C0 203.01 0 103.02 0 0 Z " fill="#FAFBFA" transform="translate(0,0)"/>
<path d="M0 0 C0 6.93 0 13.86 0 21 C-5.36801456 22.53371845 -9.59218201 23.430756 -15 24 C-15 20.37 -15 16.74 -15 13 C-21.88139728 13.8469412 -25.0650092 15.30057872 -29.4921875 20.63671875 C-33.10637025 26.30143524 -34.4899989 31.33006391 -34.375 38 C-34.38660156 38.67289063 -34.39820312 39.34578125 -34.41015625 40.0390625 C-34.38066118 45.13187715 -33.35322955 48.58078957 -31 53 C-27.97455666 55.01696222 -27.38932618 55.25811096 -24 55.1875 C-22.9790625 55.17783203 -22.9790625 55.17783203 -21.9375 55.16796875 C-19.78241791 55.05697746 -19.78241791 55.05697746 -17 54 C-16.67 50.04 -16.34 46.08 -16 42 C-18.64 42.33 -21.28 42.66 -24 43 C-24.08082094 41.04233719 -24.13910778 39.08373272 -24.1875 37.125 C-24.23970703 35.48917969 -24.23970703 35.48917969 -24.29296875 33.8203125 C-24.19628906 32.88960937 -24.09960938 31.95890625 -24 31 C-20.47485241 28.64990161 -17.21005848 28.09632564 -13.125 27.375 C-12.41730469 27.2409375 -11.70960937 27.106875 -10.98046875 26.96875 C-7.20683094 26.28007867 -3.86489263 26 0 26 C0 38.87 0 51.74 0 65 C-6.71294118 67.23764706 -6.71294118 67.23764706 -10.625 67.5625 C-13.52786001 67.81204411 -16.18509078 68.25152703 -19 69 C-33.96129962 72.43333006 -33.96129962 72.43333006 -40.125 68.9375 C-46.49580316 64.5544862 -49.27970016 59.48481336 -51 52 C-52.51023863 36.78092862 -50.96087372 22.77974837 -41.26953125 10.4453125 C-29.80675639 -1.90528486 -15.91428847 -4.54693956 0 0 Z " fill="#145A12" transform="translate(57,105)"/>
<path d="M0 0 C3.30408797 2.53079079 4.58048555 4.25071911 5.30859375 8.328125 C5.47474233 13.76216082 4.3545766 17.15676973 1.421875 21.71875 C-0.34038151 23.53665672 -1.59382589 23.87020398 -4.0625 24.25 C-4.0625 24.91 -4.0625 25.57 -4.0625 26.25 C-3.19625 26.3428125 -3.19625 26.3428125 -2.3125 26.4375 C1.19062226 27.70251637 2.12971352 28.95724605 3.9375 32.25 C4.75395898 38.65606275 4.87076924 44.87453203 0.9375 50.25 C-6.28533236 57.82516564 -17.02510381 59.12294759 -27.0625 60.25 C-29.39563178 60.28066806 -31.72947238 60.28777006 -34.0625 60.25 C-33.23082866 40.57440687 -32.14473918 20.91304133 -31.0625 1.25 C-28.52290381 0.7548325 -25.98250392 0.2646947 -23.44140625 -0.22265625 C-22.72907837 -0.36207642 -22.01675049 -0.50149658 -21.28283691 -0.6451416 C-6.63322258 -3.43894531 -6.63322258 -3.43894531 0 0 Z " fill="#145A12" transform="translate(44.0625,182.75)"/>
<path d="M0 0 C0.17291697 10.7016389 -0.36850058 21.32089373 -1 32 C-0.44570312 31.02417969 0.10859375 30.04835937 0.6796875 29.04296875 C1.41140091 27.75777981 2.14317492 26.47262536 2.875 25.1875 C3.23980469 24.54490234 3.60460937 23.90230469 3.98046875 23.24023438 C8.60036979 15.134408 8.60036979 15.134408 11.171875 14.26953125 C15.83609292 13.44269262 20.23876991 12.74940894 25 13 C21.6194661 19.43601646 17.75443401 25.32299616 13.4765625 31.203125 C11.70472741 34.55929939 11.99273185 35.44094126 13 39 C14.00753098 41.21667684 14.00753098 41.21667684 15.28515625 43.35546875 C15.73310547 44.14244141 16.18105469 44.92941406 16.64257812 45.74023438 C17.11115234 46.54783203 17.57972656 47.35542969 18.0625 48.1875 C18.99465183 49.80382329 19.92322705 51.42221625 20.84765625 53.04296875 C21.26023682 53.75477295 21.67281738 54.46657715 22.09790039 55.19995117 C23 57 23 57 23 59 C21.08404518 59.33740085 19.16720278 59.66976412 17.25 60 C16.18265625 60.185625 15.1153125 60.37125 14.015625 60.5625 C11 61 11 61 7 61 C5.02 56.71 3.04 52.42 1 48 C-0.485 48.495 -0.485 48.495 -2 49 C-2.33 53.62 -2.66 58.24 -3 63 C-8.02377899 63.8372965 -12.00067249 64.0861953 -17 64 C-17.11910561 52.91170924 -16.85699227 41.90032532 -16.20043945 30.83105469 C-16.06093746 28.47359451 -15.92936739 26.11578441 -15.79882812 23.7578125 C-15.38692613 16.48040011 -14.92087724 9.23427888 -14 2 C-9.126739 0.4087311 -5.19209404 -0.21192221 0 0 Z " fill="#165B14" transform="translate(155,159)"/>
<path d="M0 0 C0.13697624 10.53290194 -0.25855197 20.93406756 -1 31.4375 C-1.09681511 32.86259897 -1.1931711 34.2877292 -1.2890625 35.71289062 C-1.52078324 39.14230161 -1.75859788 42.57125522 -2 46 C-5.96 46.66 -9.92 47.32 -14 48 C-14.33 47.01 -14.66 46.02 -15 45 C-15.61875 45.639375 -16.2375 46.27875 -16.875 46.9375 C-19.79842151 49.77493852 -20.63926349 49.96451772 -24.8125 50.375 C-28.1275451 50.30893932 -28.94327134 50.03907974 -31.8125 48.0625 C-37.84570042 39.61601941 -38.16556174 30.01144117 -36.49609375 19.96875 C-34.78729274 12.86013782 -32.26147253 7.17431502 -26 3 C-21.79115555 2.4031657 -18.14215294 2.33142267 -14.4375 4.5 C-13.963125 4.995 -13.48875 5.49 -13 6 C-12.690625 4.7934375 -12.690625 4.7934375 -12.375 3.5625 C-11.92125 2.716875 -11.4675 1.87125 -11 1 C-7.30568843 -0.06724556 -3.81710097 -0.01944194 0 0 Z " fill="#155A13" transform="translate(93,185)"/>
<path d="M0 0 C2.74062953 2.02324593 4.2389256 3.7753927 5.22265625 7.05859375 C5.69469435 12.66404616 3.6542302 16.5576155 0.35546875 20.96875 C-5.01692003 27.09327321 -11.68455537 29.68163781 -19.40234375 31.97265625 C-20.06234375 31.97265625 -20.72234375 31.97265625 -21.40234375 31.97265625 C-20.54488947 34.20598646 -20.54488947 34.20598646 -18.40234375 35.97265625 C-13.03337972 36.69518764 -9.00316483 34.98476315 -4.65234375 31.97265625 C-3.60820312 31.16828125 -3.60820312 31.16828125 -2.54296875 30.34765625 C-0.15015165 28.81066425 1.80126811 28.36375949 4.59765625 27.97265625 C4.93076689 31.59986102 4.90879664 33.47689118 2.9453125 36.60546875 C-2.91294848 42.99447816 -7.65533403 47.274699 -16.42578125 48.33984375 C-21.1517218 48.53821656 -24.55327598 48.35170436 -28.90234375 46.41015625 C-34.33764621 41.11073635 -36.50899336 35.29327841 -36.71484375 27.78515625 C-36.60686945 18.76330382 -32.4073996 11.54394565 -26.40234375 4.97265625 C-18.91522961 -0.83367717 -9.17781174 -3.9248203 0 0 Z " fill="#155B13" transform="translate(185.40234375,105.02734375)"/>
<path d="M0 0 C2.35932564 1.65836657 3.51743694 3.49349477 4.16015625 6.2890625 C4.5652024 12.69317052 2.48386351 17.00032002 -1.65234375 21.71875 C-7.18892672 27.03106632 -14.4533977 29.98005481 -21.3203125 33.19921875 C-19.42687284 35.48015054 -19.42687284 35.48015054 -16.3203125 35.69921875 C-10.3056703 35.5725947 -4.44810118 31.32700743 -0.3203125 27.19921875 C2.3046875 27.07421875 2.3046875 27.07421875 4.6796875 27.19921875 C4.37877635 33.21744177 1.8466918 37.05687128 -2.3203125 41.19921875 C-8.92231364 46.29929164 -15.10227813 48.14928519 -23.42578125 47.71484375 C-27.92650126 46.91309606 -29.43692599 45.76551259 -32.3203125 42.19921875 C-36.46495412 34.02978056 -36.68475671 24.99443878 -34.59375 16.11328125 C-31.79676926 8.54096753 -27.16308309 4.36438346 -20.3203125 0.19921875 C-14.33321254 -1.79648124 -6.04810645 -2.08730946 0 0 Z " fill="#155B13" transform="translate(139.3203125,113.80078125)"/>
<path d="M0 0 C3.67250276 2.366724 6.25269328 4.71166272 7.40307617 9.02880859 C8.19381425 14.40507313 8.07740675 19.84509535 8.10766602 25.26953125 C8.11925142 26.71852329 8.13980554 28.16747054 8.16918945 29.61621094 C8.21172276 31.71578789 8.22800572 33.8141092 8.23828125 35.9140625 C8.25286377 37.16525879 8.26744629 38.41645508 8.2824707 39.70556641 C7.8125 42.8125 7.8125 42.8125 6.00463867 44.73974609 C2.55912317 46.42585759 0.42449945 45.90899983 -3.1875 44.8125 C-8.14337529 39.50962447 -7.81017728 33.98788938 -7.875 27 C-7.91687456 24.91007887 -7.96224918 22.82022389 -8.01171875 20.73046875 C-8.02291748 19.81031982 -8.03411621 18.8901709 -8.0456543 17.94213867 C-7.95162795 15.82885525 -7.95162795 15.82885525 -9.1875 14.8125 C-13.20407143 14.58331758 -13.20407143 14.58331758 -17.1875 14.8125 C-19.97962511 17.60462511 -19.53888075 20.26554289 -19.6015625 24.0078125 C-19.62092865 24.71525604 -19.6402948 25.42269958 -19.6602478 26.15158081 C-19.72007652 28.41343085 -19.76644101 30.6753317 -19.8125 32.9375 C-19.85067686 34.4700744 -19.88972842 36.00262728 -19.9296875 37.53515625 C-20.02742973 41.29415947 -20.10696808 45.05293068 -20.1875 48.8125 C-24.8075 49.4725 -29.4275 50.1325 -34.1875 50.8125 C-34.41184739 45.72652543 -34.57413156 40.64349335 -34.68188477 35.55371094 C-34.72684209 33.8269631 -34.78803584 32.10055199 -34.86645508 30.375 C-35.58186243 14.21521047 -35.58186243 14.21521047 -29.96484375 7.7421875 C-26.91282421 4.84778399 -24.16283119 3.17479049 -20.1875 1.8125 C-19.8575 2.4725 -19.5275 3.1325 -19.1875 3.8125 C-18.259375 3.173125 -17.33125 2.53375 -16.375 1.875 C-10.93541027 -1.64473453 -6.14136896 -2.28796098 0 0 Z " fill="#165B13" transform="translate(231.1875,95.1875)"/>
<path d="M0 0 C2.22758566 1.44360527 3.66780088 2.7848205 4.859375 5.16796875 C5.36439843 10.69838927 5.59744757 15.57827399 3.234375 20.66796875 C-0.23873332 24.32387224 -3.99708966 27.54450992 -9.140625 28.16796875 C-11.47363433 28.20685224 -13.80772301 28.21283225 -16.140625 28.16796875 C-15.810625 29.81796875 -15.480625 31.46796875 -15.140625 33.16796875 C-8.78112709 33.67672858 -5.34898361 33.23302913 -0.140625 29.16796875 C0.519375 29.16796875 1.179375 29.16796875 1.859375 29.16796875 C2.50130287 32.85428724 2.97832165 36.42114933 2.859375 40.16796875 C-0.67343018 44.55721155 -5.85809582 45.87670122 -11.32421875 46.57421875 C-21.19913822 46.85873024 -21.19913822 46.85873024 -25.265625 43.66796875 C-31.28449652 37.21597744 -31.69904743 30.15148588 -31.48828125 21.57421875 C-30.68352267 13.68939313 -26.88144352 7.53091061 -21.140625 2.16796875 C-15.56051549 -2.05113844 -6.49693577 -2.52526883 0 0 Z " fill="#165B14" transform="translate(212.140625,168.83203125)"/>
<path d="M0 0 C0.6590332 0.17660156 1.31806641 0.35320313 1.99707031 0.53515625 C17.56867416 4.81873551 31.61247874 12.72480173 44 23 C45.30710938 24.07894531 45.30710938 24.07894531 46.640625 25.1796875 C52.71906437 30.41907849 58.66585544 36.20352652 63 43 C62.67 43.99 62.34 44.98 62 46 C60.68 46 59.36 46 58 46 C56.39453125 44.34765625 56.39453125 44.34765625 54.8125 42.0625 C39.16071061 20.92928225 13.7165401 7.42205723 -12 3 C-42.60837529 -1.32890945 -72.18318895 4.8647341 -97.19384766 23.29418945 C-98.80747413 24.51429958 -100.40423281 25.75662306 -102 27 C-102.83144531 27.64582031 -103.66289063 28.29164062 -104.51953125 28.95703125 C-110.10386148 33.60248984 -114.35189136 39.04041739 -118.640625 44.8515625 C-125.29692034 53.73396986 -125.29692034 53.73396986 -128.3125 54.875 C-128.869375 54.91625 -129.42625 54.9575 -130 55 C-126.9241463 38.79550246 -107.72753244 23.77112552 -94.8125 14.78125 C-66.13385658 -3.4943561 -32.91460165 -9.11527712 0 0 Z " fill="#20611E" transform="translate(156,46)"/>
<path d="M0 0 C1.20785156 -0.00515625 2.41570312 -0.0103125 3.66015625 -0.015625 C6.9375 0.25 6.9375 0.25 10.9375 2.25 C9.9475 5.55 8.9575 8.85 7.9375 12.25 C2.4925 11.755 2.4925 11.755 -3.0625 11.25 C-3.3925 12.57 -3.7225 13.89 -4.0625 15.25 C-3.19238281 15.45302734 -3.19238281 15.45302734 -2.3046875 15.66015625 C2.92168705 17.10042778 6.57360302 18.78677952 9.90625 23.15625 C11.86100354 27.12499203 11.64576897 30.96497273 10.9375 35.25 C9.26901214 39.99201814 7.18160386 42.57436931 2.9375 45.25 C-3.67083466 48.3543185 -9.85125325 48.61393208 -17.0625 48.25 C-19.48220302 43.41059395 -19.0625 41.33522941 -19.0625 35.25 C-13.7825 35.25 -8.5025 35.25 -3.0625 35.25 C-3.58823704 31.25975514 -3.58823704 31.25975514 -5.98828125 29.94140625 C-6.77589844 29.56886719 -7.56351563 29.19632813 -8.375 28.8125 C-12.9720864 26.44452545 -15.72296225 23.9290755 -18.0625 19.25 C-18.67664839 14.99760547 -18.99220361 10.96277612 -16.8984375 7.10546875 C-12.07976338 1.23657078 -7.55451083 -0.03231876 0 0 Z " fill="#155A13" transform="translate(119.0625,180.75)"/>
<path d="M0 0 C0 2.97 0 5.94 0 9 C3.3 8.67 6.6 8.34 10 8 C10 11.63 10 15.26 10 19 C5 21 5 21 -2 21 C-2 28.26 -2 35.52 -2 43 C0.97 42.34 3.94 41.68 7 41 C7.33 44.63 7.66 48.26 8 52 C1.69610593 55.87931943 -4.58925127 57.70447221 -12 56 C-14.53220231 53.8820812 -15.80060839 52.26055798 -16.32373047 48.95336914 C-16.43172087 46.53908607 -16.39753678 44.16504467 -16.3125 41.75 C-16.30283203 40.94175781 -16.29316406 40.13351563 -16.28320312 39.30078125 C-16.18229852 33.81683548 -15.67203852 28.44187292 -15 23 C-16.65 23.33 -18.3 23.66 -20 24 C-20.61321653 18.83146067 -20.61321653 18.83146067 -20 16 C-18.39537454 14.53682912 -16.69525271 13.59290676 -14.82421875 12.49609375 C-11.33732494 9.63639283 -10.30977867 5.1896647 -9 1 C-2.25 0 -2.25 0 0 0 Z " fill="#155B13" transform="translate(242,153)"/>
<path d="M0 0 C1.32 0 2.64 0 4 0 C2.64253699 4.85017864 0.49997362 8.6495352 -2.4375 12.6875 C-2.8806958 13.29762939 -3.3238916 13.90775879 -3.78051758 14.53637695 C-15.88047878 30.79775664 -31.72687834 41.72797396 -50 50 C-50.86882812 50.40863281 -51.73765625 50.81726563 -52.6328125 51.23828125 C-78.51277507 62.59914617 -110.22506289 61.83524161 -136.28173828 51.82543945 C-148.3372882 46.96773978 -162.55931701 40.29146398 -171 30 C-171.1875 26.8125 -171.1875 26.8125 -171 24 C-170.30777344 24.52787109 -170.30777344 24.52787109 -169.6015625 25.06640625 C-167.41093658 26.72452824 -165.20698848 28.36372213 -163 30 C-162.26394531 30.55300781 -161.52789062 31.10601562 -160.76953125 31.67578125 C-146.84163071 41.82425149 -131.10812614 49.21344915 -114 52 C-113.319375 52.11085938 -112.63875 52.22171875 -111.9375 52.3359375 C-82.18955382 56.15772225 -52.19700378 49.39988523 -28.1875 31.125 C-18.20901512 23.22724405 -10.47286864 14.35064692 -3.15234375 4.02734375 C-1 1 -1 1 0 0 Z " fill="#21611F" transform="translate(220,213)"/>
<path d="M0 0 C0.66 0.33 1.32 0.66 2 1 C1.86177801 4.14621682 1.71314916 7.29185566 1.5625 10.4375 C1.52318359 11.33533203 1.48386719 12.23316406 1.44335938 13.15820312 C1.38051758 14.43920898 1.38051758 14.43920898 1.31640625 15.74609375 C1.27974854 16.53685303 1.24309082 17.3276123 1.20532227 18.14233398 C1 20 1 20 0 21 C-2.67058851 21.14115161 -5.32432238 21.04247107 -8 21 C-8 19.02 -8 17.04 -8 15 C-12.60742865 16.21044132 -12.60742865 16.21044132 -17 18 C-17.33 27.57 -17.66 37.14 -18 47 C-27 49.25 -27 49.25 -32 49 C-32.22460366 44.34129767 -32.38673582 39.68582306 -32.49438477 35.02294922 C-32.53930224 33.44166106 -32.60046629 31.86073936 -32.67895508 30.28076172 C-33.3943265 15.49641907 -33.3943265 15.49641907 -27.77734375 9.0234375 C-24.72329507 6.07358016 -22.01834096 4.36633397 -18 3 C-17.67 3.66 -17.34 4.32 -17 5 C-15.576875 3.7625 -15.576875 3.7625 -14.125 2.5 C-9.64869521 -0.74051513 -5.35043756 -0.6846995 0 0 Z " fill="#155A12" transform="translate(97,119)"/>
<path d="M0 0 C2.7225596 2.28842172 4.7937982 4.56945288 6.890625 7.4296875 C0.87473719 7.54764608 -2.68672206 5.66315501 -7.484375 2.1796875 C-25.99872027 -11.22515359 -48.67000796 -15.31263785 -71.2421875 -12.07421875 C-86.9979198 -8.95479524 -102.15974375 -1.33089925 -113.36328125 10.3125 C-115.109375 11.4296875 -115.109375 11.4296875 -117.82421875 11.109375 C-118.57832031 10.88507813 -119.33242187 10.66078125 -120.109375 10.4296875 C-117.83014705 5.99119096 -114.80595063 3.13532118 -110.921875 0.1171875 C-110.30892578 -0.35920166 -109.69597656 -0.83559082 -109.06445312 -1.32641602 C-76.41888559 -25.86412249 -32.18101816 -23.98218669 0 0 Z " fill="#22621F" transform="translate(179.109375,91.5703125)"/>
<path d="M0 0 C1.33998047 0.06960937 1.33998047 0.06960937 2.70703125 0.140625 C3.60808594 0.17671875 4.50914063 0.2128125 5.4375 0.25 C6.46810547 0.31960937 6.46810547 0.31960937 7.51953125 0.390625 C7.84953125 1.380625 8.17953125 2.370625 8.51953125 3.390625 C7.52953125 4.050625 6.53953125 4.710625 5.51953125 5.390625 C8.81953125 5.060625 12.11953125 4.730625 15.51953125 4.390625 C15.51953125 5.380625 15.51953125 6.370625 15.51953125 7.390625 C16.83953125 8.050625 18.15953125 8.710625 19.51953125 9.390625 C19.18953125 11.040625 18.85953125 12.690625 18.51953125 14.390625 C18.18953125 13.400625 17.85953125 12.410625 17.51953125 11.390625 C14.25944482 14.56015347 11.29715248 17.79000489 8.51953125 21.390625 C11.96265589 21.07761367 14.00850619 20.81404576 16.70703125 18.578125 C18.38081083 16.55804619 19.99470325 14.5253842 21.51953125 12.390625 C21.90431203 15.75745681 21.66280285 17.16245171 19.83203125 20.078125 C16.27538381 23.63477244 13.73057248 24.24933686 8.76953125 24.828125 C3.59283506 24.67125542 -0.44339558 22.53145206 -4.48046875 19.390625 C-7.56120026 15.98777947 -8.69024565 12.50638027 -8.73046875 7.953125 C-8.64796875 6.7775 -8.56546875 5.601875 -8.48046875 4.390625 C-7.49046875 4.390625 -6.50046875 4.390625 -5.48046875 4.390625 C-5.03058594 3.73578125 -4.58070312 3.0809375 -4.1171875 2.40625 C-2.48046875 0.390625 -2.48046875 0.390625 0 0 Z " fill="#B2C9B1" transform="translate(117.48046875,85.609375)"/>
<path d="M0 0 C-1.05386455 3.19672246 -2.04452396 4.02717013 -4.9765625 5.81640625 C-6.18598742 6.4122774 -7.4026004 6.99372036 -8.625 7.5625 C-9.26163574 7.86768555 -9.89827148 8.17287109 -10.55419922 8.48730469 C-14.97062014 10.5800642 -19.33440631 12.54827907 -24 14 C-24.77214844 14.27714844 -25.54429687 14.55429688 -26.33984375 14.83984375 C-43.45791701 20.16928693 -64.82374276 18.37236503 -81 11 C-81 10.01 -81 9.02 -81 8 C-76.5645594 7.70430396 -73.21130941 8.15475171 -68.96484375 9.49609375 C-63.01048771 11.16953374 -57.52750203 11.38160432 -51.375 11.25 C-50.40304688 11.24484375 -49.43109375 11.2396875 -48.4296875 11.234375 C-33.71913828 11.07619705 -22.19706663 7.8491415 -9.0078125 1.171875 C-5.77911071 -0.08606076 -3.43267009 -0.22542908 0 0 Z " fill="#1F601D" transform="translate(173,225)"/>
<path d="M0 0 C3.94857863 3.0948319 5.40992804 6.26949715 6.3125 11.125 C6.70457841 15.72231159 5.35004175 18.41798892 2.83203125 22.18359375 C0.13574007 25.07396245 -2.01368369 25.78658399 -5.9375 25.9375 C-6.845 25.89625 -7.7525 25.855 -8.6875 25.8125 C-8.28917969 25.35359375 -7.89085938 24.8946875 -7.48046875 24.421875 C-4.77607938 21.28978415 -2.10758229 18.17372541 0.3125 14.8125 C1.3025 15.1425 2.2925 15.4725 3.3125 15.8125 C3.6425 14.8225 3.9725 13.8325 4.3125 12.8125 C2.6625 12.8125 1.0125 12.8125 -0.6875 12.8125 C-0.3575 11.4925 -0.0275 10.1725 0.3125 8.8125 C-5.6275 9.3075 -5.6275 9.3075 -11.6875 9.8125 C-11.0275 8.8225 -10.3675 7.8325 -9.6875 6.8125 C-8.6975 6.8125 -7.7075 6.8125 -6.6875 6.8125 C-7.58085797 4.45464682 -7.58085797 4.45464682 -10.75 3.6875 C-12.2040625 3.254375 -12.2040625 3.254375 -13.6875 2.8125 C-10.35501794 -2.1862231 -5.30890786 -2.3457965 0 0 Z " fill="#86A585" transform="translate(132.6875,82.1875)"/>
<path d="M0 0 C1.33998047 0.06960937 1.33998047 0.06960937 2.70703125 0.140625 C3.60808594 0.17671875 4.50914063 0.2128125 5.4375 0.25 C6.46810547 0.31960937 6.46810547 0.31960937 7.51953125 0.390625 C7.84953125 1.380625 8.17953125 2.370625 8.51953125 3.390625 C7.55015625 3.844375 6.58078125 4.298125 5.58203125 4.765625 C2.44873543 6.04848721 2.44873543 6.04848721 1.51953125 8.390625 C1.10425924 13.06243516 1.81959134 15.56571013 4.51953125 19.390625 C3.51953125 20.390625 3.51953125 20.390625 0.70703125 20.703125 C-2.48046875 20.390625 -2.48046875 20.390625 -4.73046875 18.640625 C-8.56672336 13.70829764 -8.68600299 10.55665206 -8.48046875 4.390625 C-7.49046875 4.390625 -6.50046875 4.390625 -5.48046875 4.390625 C-5.03058594 3.73578125 -4.58070312 3.0809375 -4.1171875 2.40625 C-2.48046875 0.390625 -2.48046875 0.390625 0 0 Z " fill="#155A13" transform="translate(117.48046875,85.609375)"/>
<path d="M0 0 C1.66611905 -0.042721 3.33382885 -0.04063832 5 0 C7.03378902 2.03378902 6.27581457 5.97168997 6.3125 8.75 C6.34150391 9.46671875 6.37050781 10.1834375 6.40039062 10.921875 C6.44489838 14.64683154 6.1165136 16.80821216 4.16796875 20.015625 C2 22 2 22 -1 22 C-4.24303336 17.13544996 -3.48145097 11.69368099 -3 6 C-2.25339036 3.58322891 -1.43894811 2.09846599 0 0 Z " fill="#ECF1EB" transform="translate(73,200)"/>
<path d="M0 0 C2 2 2 2 2.4375 4.9375 C2 8 2 8 0.125 9.8125 C-4.19102678 11.45259018 -8.41499909 11.74181548 -13 12 C-13.66 9.03 -14.32 6.06 -15 3 C-9.6650939 0.33254695 -6.01553409 -0.33419634 0 0 Z " fill="#D0DECF" transform="translate(108,57)"/>
<path d="M0 0 C0.9590625 0.4021875 0.9590625 0.4021875 1.9375 0.8125 C5.91202261 2.35364142 9.94884495 3.67609312 14 5 C13.42415568 7.38564077 12.77772405 9.66682784 12 12 C12.99 12.33 13.98 12.66 15 13 C12.83032311 13.95465783 11.43671207 14.14401212 9.17578125 13.3984375 C7.4315257 12.64129615 5.71372869 11.82390802 4 11 C4 10.01 4 9.02 4 8 C2.02 8.33 0.04 8.66 -2 9 C-2.6875 7.3125 -2.6875 7.3125 -3 5 C-1.5625 2.25 -1.5625 2.25 0 0 Z " fill="#99B698" transform="translate(81,242)"/>
<path d="M0 0 C0.66 0 1.32 0 2 0 C5.22265625 5.2734375 5.22265625 5.2734375 6 7 C5.67 7.66 5.34 8.32 5 9 C4.34 8.34 3.68 7.68 3 7 C2.01 8.485 2.01 8.485 1 10 C0.34 9.67 -0.32 9.34 -1 9 C-1 9.99 -1 10.98 -1 12 C-5.75 13.125 -5.75 13.125 -8 12 C-8 13.32 -8 14.64 -8 16 C-8.66 16 -9.32 16 -10 16 C-11.32 13.03 -12.64 10.06 -14 7 C-13.34 6.34 -12.68 5.68 -12 5 C-9.375 5.375 -9.375 5.375 -7 6 C-6.87625 6.639375 -6.7525 7.27875 -6.625 7.9375 C-6.41875 8.618125 -6.2125 9.29875 -6 10 C-5.34 10.33 -4.68 10.66 -4 11 C-4.33 8.03 -4.66 5.06 -5 2 C-3 2 -3 2 -1.375 3.5 C-0.92125 3.995 -0.4675 4.49 0 5 C0 3.35 0 1.7 0 0 Z " fill="#5A8759" transform="translate(88,61)"/>
<path d="M0 0 C1.65 0.33 3.3 0.66 5 1 C5 4.3 5 7.6 5 11 C4.01 11 3.02 11 2 11 C1.67 10.34 1.34 9.68 1 9 C0.67 9.99 0.34 10.98 0 12 C-0.99 12 -1.98 12 -3 12 C-3.33 10.35 -3.66 8.7 -4 7 C-4.66 8.32 -5.32 9.64 -6 11 C-6.66 11 -7.32 11 -8 11 C-8.99 7.7 -9.98 4.4 -11 1 C-10.01 1.33 -9.02 1.66 -8 2 C-8 2.99 -8 3.98 -8 5 C-7.34 5 -6.68 5 -6 5 C-6 3.68 -6 2.36 -6 1 C-5.01 1.33 -4.02 1.66 -3 2 C-3 2.99 -3 3.98 -3 5 C-2.34 5 -1.68 5 -1 5 C-0.67 3.35 -0.34 1.7 0 0 Z " fill="#427640" transform="translate(126,54)"/>
<path d="M0 0 C3.375 -0.125 3.375 -0.125 7 0 C9 2 9 2 9.375 4.875 C9 8 9 8 7.3125 10.3125 C5 12 5 12 0 13 C0 8.71 0 4.42 0 0 Z " fill="#EAF1EA" transform="translate(25,216)"/>
<path d="M0 0 C3.3 0 6.6 0 10 0 C11.88343932 3.76687864 12.22057835 5.02958963 12 9 C11.34 9 10.68 9 10 9 C9.67 8.34 9.34 7.68 9 7 C8.67 7.66 8.34 8.32 8 9 C5.36 8.67 2.72 8.34 0 8 C0 5.36 0 2.72 0 0 Z " fill="#8BAC8A" transform="translate(108,251)"/>
<path d="M0 0 C0.33 1.65 0.66 3.3 1 5 C-6.2 11 -6.2 11 -12 11 C-11.80244399 6.75254576 -11.24463336 5.25575306 -8.25 2.125 C-5.0005274 0.00034484 -3.75572342 -0.55231227 0 0 Z " fill="#E8EFE7" transform="translate(129,124)"/>
<path d="M0 0 C1.98 0 3.96 0 6 0 C5.67 1.65 5.34 3.3 5 5 C4.67 4.01 4.34 3.02 4 2 C0.73991357 5.16952847 -2.22237877 8.39937989 -5 12 C-1.55687536 11.68698867 0.48897494 11.42342076 3.1875 9.1875 C4.86127958 7.16742119 6.475172 5.1347592 8 3 C8.38478078 6.36683181 8.1432716 7.77182671 6.3125 10.6875 C2.72023245 14.27976755 -0.21733161 15.09762354 -5.1875 15.1875 C-9 15 -9 15 -11 14 C-11 13.34 -11 12.68 -11 12 C-10.113125 11.690625 -9.22625 11.38125 -8.3125 11.0625 C-3.80928695 8.25861263 -2.22642019 4.6991258 0 0 Z " fill="#296426" transform="translate(131,95)"/>
<path d="M0 0 C0.375 2.1875 0.375 2.1875 0 5 C-3.79990524 8.98085311 -6.37920259 10.59851447 -12 11 C-12.47345469 8.31709011 -12.4187334 6.62083042 -10.875 4.33203125 C-7.45350277 0.58085851 -5.27162339 -0.75308906 0 0 Z " fill="#EDF3ED" transform="translate(176,116)"/>
<path d="M0 0 C1.98 0 3.96 0 6 0 C6.625 3.375 6.625 3.375 7 7 C5 9 5 9 2.3984375 9.1953125 C1.40070313 9.17210937 0.40296875 9.14890625 -0.625 9.125 C-2.12933594 9.09792969 -2.12933594 9.09792969 -3.6640625 9.0703125 C-4.43492188 9.04710937 -5.20578125 9.02390625 -6 9 C-6 6.36 -6 3.72 -6 1 C-4.35 1 -2.7 1 -1 1 C-1.99 1.33 -2.98 1.66 -4 2 C-4 2.66 -4 3.32 -4 4 C-3.34 4.33 -2.68 4.66 -2 5 C-2.66 5 -3.32 5 -4 5 C-4 5.99 -4 6.98 -4 8 C-2.68 8 -1.36 8 0 8 C0 5.36 0 2.72 0 0 Z " fill="#84A682" transform="translate(127,251)"/>
<path d="M0 0 C3.35419782 2.62896586 3.93718532 3.74874129 5 8 C2.36 7.34 -0.28 6.68 -3 6 C-3 6.66 -3 7.32 -3 8 C-5.31 8.33 -7.62 8.66 -10 9 C-9.34 8.01 -8.68 7.02 -8 6 C-7.01 6 -6.02 6 -5 6 C-6.83333333 2.83333333 -6.83333333 2.83333333 -10 1 C-6.4215878 -1.33973105 -4.05713232 -1.18333026 0 0 Z " fill="#E8EFE7" transform="translate(131,83)"/>
<path d="M0 0 C2.875 -0.125 2.875 -0.125 6 0 C8 2 8 2 8.3125 5 C8.1578125 6.485 8.1578125 6.485 8 8 C5 10 5 10 1 10 C0.67 6.7 0.34 3.4 0 0 Z " fill="#437641" transform="translate(102,57)"/>
<path d="M0 0 C0.66 0.66 1.32 1.32 2 2 C1.2628641 3.29905098 0.50969444 4.58901122 -0.25 5.875 C-0.66765625 6.59429687 -1.0853125 7.31359375 -1.515625 8.0546875 C-3.19572597 10.25650403 -4.41903857 11.04702963 -7 12 C-10.25 12.125 -10.25 12.125 -13 12 C-12.60167969 11.54109375 -12.20335938 11.0821875 -11.79296875 10.609375 C-9.08857938 7.47728415 -6.42008229 4.36122541 -4 1 C-3.01 1.33 -2.02 1.66 -1 2 C-0.67 1.34 -0.34 0.68 0 0 Z " fill="#729A71" transform="translate(137,96)"/>
<path d="M0 0 C1.99954746 -0.04254356 4.00041636 -0.04080783 6 0 C7 1 7 1 7.25 4.4375 C7.1675 5.613125 7.085 6.78875 7 8 C4 10 4 10 0 10 C0 6.7 0 3.4 0 0 Z " fill="#F5F8F5" transform="translate(27,194)"/>
<path d="M0 0 C2.0625 0.4375 2.0625 0.4375 4 1 C4.33 3.31 4.66 5.62 5 8 C4.34 7.67 3.68 7.34 3 7 C2.375 4.9375 2.375 4.9375 2 3 C1.67 4.98 1.34 6.96 1 9 C0.34 9 -0.32 9 -1 9 C-1.33 8.34 -1.66 7.68 -2 7 C-2.33 7.99 -2.66 8.98 -3 10 C-3.66 10 -4.32 10 -5 10 C-6.06775224 8.03533587 -7.06553465 6.03144641 -8 4 C-7.67 3.34 -7.34 2.68 -7 2 C-6.34 2.33 -5.68 2.66 -5 3 C-4.34 2.34 -3.68 1.68 -3 1 C-2.34 1 -1.68 1 -1 1 C-0.67 0.67 -0.34 0.34 0 0 Z " fill="#558353" transform="translate(145,249)"/>
<path d="M0 0 C0.99 0.33 1.98 0.66 3 1 C2.29445932 4.66881155 0.72264494 7.70450534 -1 11 C-2.65 10.67 -4.3 10.34 -6 10 C-6.33 8.68 -6.66 7.36 -7 6 C-6.34 6 -5.68 6 -5 6 C-4.67 5.01 -4.34 4.02 -4 3 C-1.9375 2.3125 -1.9375 2.3125 0 2 C0 1.34 0 0.68 0 0 Z " fill="#185B16" transform="translate(127,92)"/>
<path d="M0 0 C0.66 0 1.32 0 2 0 C3.76462683 3.08809695 4 4.23312136 4 8 C3.34 8 2.68 8 2 8 C2 7.01 2 6.02 2 5 C1.01 5.495 1.01 5.495 0 6 C0 7.32 0 8.64 0 10 C-0.66 10 -1.32 10 -2 10 C-2.33 8.02 -2.66 6.04 -3 4 C-3.99 4 -4.98 4 -6 4 C-5.67 6.31 -5.34 8.62 -5 11 C-5.66 11 -6.32 11 -7 11 C-7.33 9.02 -7.66 7.04 -8 5 C-8.99 4.67 -9.98 4.34 -11 4 C-6.58709677 1.91612903 -6.58709677 1.91612903 -3.8125 2.3125 C-2 3 -2 3 0 4 C0 2.68 0 1.36 0 0 Z " fill="#4E7D4C" transform="translate(160,244)"/>
<path d="M0 0 C0.598125 0.226875 1.19625 0.45375 1.8125 0.6875 C2.125 3.5 2.125 3.5 1.8125 6.6875 C-1.03824644 8.99891604 -2.5014451 9.6875 -6.1875 9.6875 C-5.58414218 3.29190714 -5.58414218 3.29190714 -3.875 0.6875 C-2.1875 -0.3125 -2.1875 -0.3125 0 0 Z " fill="#E9F0E9" transform="translate(202.1875,178.3125)"/>
<path d="M0 0 C2.475 0.99 2.475 0.99 5 2 C4.67 3.65 4.34 5.3 4 7 C3.34 7 2.68 7 2 7 C2 8.65 2 10.3 2 12 C1.34 12 0.68 12 0 12 C0 10.02 0 8.04 0 6 C-0.66 6 -1.32 6 -2 6 C-2.33 6.99 -2.66 7.98 -3 9 C-3.33 8.01 -3.66 7.02 -4 6 C-2.0625 2.8125 -2.0625 2.8125 0 0 Z " fill="#528250" transform="translate(175,69)"/>
<path d="M0 0 C0.66 0.33 1.32 0.66 2 1 C1.01 2.485 1.01 2.485 0 4 C0.99 3.67 1.98 3.34 3 3 C2.67 4.32 2.34 5.64 2 7 C3.32 6.34 4.64 5.68 6 5 C5.34 6.32 4.68 7.64 4 9 C2.68 8.34 1.36 7.68 0 7 C-0.33 7.33 -0.66 7.66 -1 8 C-1 9.32 -1 10.64 -1 12 C-4.65316671 10.75023244 -5.78065836 10.32901247 -8 7 C-5.525 7.99 -5.525 7.99 -3 9 C-3.33 7.02 -3.66 5.04 -4 3 C-2.68 2.01 -1.36 1.02 0 0 Z " fill="#518050" transform="translate(185,228)"/>
<path d="M0 0 C1.32 0.33 2.64 0.66 4 1 C4.33 2.65 4.66 4.3 5 6 C5.99 5.01 6.98 4.02 8 3 C6.125 7.75 6.125 7.75 5 10 C2.69 9.67 0.38 9.34 -2 9 C-1.34 6.03 -0.68 3.06 0 0 Z " fill="#789C77" transform="translate(99,248)"/>
<path d="M0 0 C-0.57584432 2.38564077 -1.22227595 4.66682784 -2 7 C-1.01 7.33 -0.02 7.66 1 8 C-1.60582371 8.93065133 -2.64198224 9.14917407 -5.25 8.0625 C-5.8275 7.711875 -6.405 7.36125 -7 7 C-6.67 6.67 -6.34 6.34 -6 6 C-6.66 5.67 -7.32 5.34 -8 5 C-8 4.34 -8 3.68 -8 3 C-7.34 2.67 -6.68 2.34 -6 2 C-6.33 1.34 -6.66 0.68 -7 0 C-3.98968256 -0.93423645 -3.13349732 -1.04449911 0 0 Z " fill="#A3BCA1" transform="translate(95,247)"/>
<path d="M0 0 C1.65 0.33 3.3 0.66 5 1 C5 4.3 5 7.6 5 11 C4.01 11 3.02 11 2 11 C1.67 10.34 1.34 9.68 1 9 C0.67 9.99 0.34 10.98 0 12 C-0.99 12 -1.98 12 -3 12 C-2.690625 11.505 -2.38125 11.01 -2.0625 10.5 C-0.58355618 7.02013219 -0.37597149 3.75971491 0 0 Z " fill="#96B395" transform="translate(126,54)"/>
<path d="M0 0 C4.70588235 0.70588235 4.70588235 0.70588235 6 2 C6.04063832 3.66617115 6.042721 5.33388095 6 7 C3.625 7.625 3.625 7.625 1 8 C-1 6 -1 6 -1.1875 3.4375 C-1 1 -1 1 0 0 Z " fill="#366A34" transform="translate(173,237)"/>
<path d="M0 0 C0.66 1.32 1.32 2.64 2 4 C1.34 4 0.68 4 0 4 C0.71563266 6.0162233 0.71563266 6.0162233 2 8 C4.05000871 8.80528889 4.05000871 8.80528889 6 9 C6.433125 7.5459375 6.433125 7.5459375 6.875 6.0625 C8 3 8 3 10 2 C8.72545246 6.98232221 6.95677819 9.70268484 3 13 C0.875 13.9375 0.875 13.9375 -1 14 C-1.99 13.34 -2.98 12.68 -4 12 C-2.35 11.67 -0.7 11.34 1 11 C0.46375 10.113125 -0.0725 9.22625 -0.625 8.3125 C-2 5 -2 5 -1.1875 2.125 C-0.5996875 1.073125 -0.5996875 1.073125 0 0 Z " fill="#7BA279" transform="translate(120,94)"/>
<path d="M0 0 C0.66 0 1.32 0 2 0 C2.103125 0.639375 2.20625 1.27875 2.3125 1.9375 C2.539375 2.618125 2.76625 3.29875 3 4 C3.99 4.33 4.98 4.66 6 5 C6 3.68 6 2.36 6 1 C6.66 1 7.32 1 8 1 C7.34 4.3 6.68 7.6 6 11 C5.34 11 4.68 11 4 11 C4.33 9.35 4.66 7.7 5 6 C3.68 6 2.36 6 1 6 C0.67 7.32 0.34 8.64 0 10 C-0.66 10 -1.32 10 -2 10 C-1.34 6.7 -0.68 3.4 0 0 Z " fill="#437542" transform="translate(143,57)"/>
<path d="M0 0 C1.32 0.66 2.64 1.32 4 2 C4 2.99 4 3.98 4 5 C3.34 5 2.68 5 2 5 C2 5.66 2 6.32 2 7 C0.68 7.33 -0.64 7.66 -2 8 C-1.34 8.33 -0.68 8.66 0 9 C0 9.66 0 10.32 0 11 C-2.475 10.01 -2.475 10.01 -5 9 C-3.7508258 5.54074837 -2.32472205 2.85306797 0 0 Z " fill="#427441" transform="translate(183,74)"/>
<path d="M0 0 C0 3.3 0 6.6 0 10 C-0.66 10 -1.32 10 -2 10 C-2.33 9.34 -2.66 8.68 -3 8 C-5.52733235 7.34444881 -5.52733235 7.34444881 -8 7 C-2.65789474 0 -2.65789474 0 0 0 Z " fill="#477946" transform="translate(170,66)"/>
<path d="M0 0 C1.65 0 3.3 0 5 0 C5.97608217 2.92824652 6.08226668 4.95613276 6 8 C5.34 8 4.68 8 4 8 C3.67 7.34 3.34 6.68 3 6 C2.67 6.66 2.34 7.32 2 8 C1.34 8 0.68 8 0 8 C0 5.36 0 2.72 0 0 Z " fill="#467945" transform="translate(114,252)"/>
<path d="M0 0 C3.93673644 1.31224548 6.22719294 2.91910327 9 6 C7.35 6.33 5.7 6.66 4 7 C3.67 7.99 3.34 8.98 3 10 C2.34 10 1.68 10 1 10 C0.67 6.7 0.34 3.4 0 0 Z " fill="#5D895D" transform="translate(68,72)"/>
<path d="M0 0 C3.125 -0.1875 3.125 -0.1875 6 0 C5.67 1.65 5.34 3.3 5 5 C4.67 4.01 4.34 3.02 4 2 C1.06799526 4.85276137 -1.64315404 7.65079784 -4 11 C-4.66 10.67 -5.32 10.34 -6 10 C-4.07119658 6.59244728 -2.1723491 3.25852365 0 0 Z " fill="#20601E" transform="translate(131,95)"/>
<path d="M0 0 C0.78375 0.04125 1.5675 0.0825 2.375 0.125 C2.705 0.785 3.035 1.445 3.375 2.125 C1.725 2.455 0.075 2.785 -1.625 3.125 C-1.955 4.775 -2.285 6.425 -2.625 8.125 C-1.635 8.125 -0.645 8.125 0.375 8.125 C0.375 8.785 0.375 9.445 0.375 10.125 C-1.275 9.795 -2.925 9.465 -4.625 9.125 C-4.75 5.75 -4.75 5.75 -4.625 2.125 C-2.625 0.125 -2.625 0.125 0 0 Z " fill="#457843" transform="translate(160.625,61.875)"/>
<path d="M0 0 C-1.32 0.33 -2.64 0.66 -4 1 C-4 1.66 -4 2.32 -4 3 C-2.68 3.33 -1.36 3.66 0 4 C-0.66 4 -1.32 4 -2 4 C-2 4.99 -2 5.98 -2 7 C-0.68 7.33 0.64 7.66 2 8 C1 9 1 9 -1.5625 9.0625 C-2.366875 9.041875 -3.17125 9.02125 -4 9 C-4.66 6.03 -5.32 3.06 -6 0 C-3.50907189 -1.24546405 -2.58919267 -0.7767578 0 0 Z " fill="#3A7038" transform="translate(99,60)"/>
<path d="M0 0 C0.66 0 1.32 0 2 0 C1.49963418 4.37820092 0.16825333 6.9197537 -3 10 C-5.75 10.3125 -5.75 10.3125 -8 10 C-7.59007813 9.52949219 -7.18015625 9.05898437 -6.7578125 8.57421875 C-6.21898438 7.95160156 -5.68015625 7.32898438 -5.125 6.6875 C-4.59132813 6.07261719 -4.05765625 5.45773438 -3.5078125 4.82421875 C-1.8359553 2.86501788 -1.8359553 2.86501788 0 0 Z " fill="#DCE7DC" transform="translate(132,98)"/>
<path d="M0 0 C2.31 0 4.62 0 7 0 C7 0.66 7 1.32 7 2 C6.01 2 5.02 2 4 2 C4 4.64 4 7.28 4 10 C3.01 10 2.02 10 1 10 C1.33 7.03 1.66 4.06 2 1 C1.34 0.67 0.68 0.34 0 0 Z " fill="#5A8759" transform="translate(134,56)"/>
<path d="M0 0 C-0.33 0.99 -0.66 1.98 -1 3 C-1.66 3 -2.32 3 -3 3 C-3 3.99 -3 4.98 -3 6 C-1.68 5.67 -0.36 5.34 1 5 C0.7215625 5.8971875 0.7215625 5.8971875 0.4375 6.8125 C-0.22093687 9.16408762 -0.22093687 9.16408762 1 12 C0.34 12 -0.32 12 -1 12 C-2.2890625 10.25 -2.2890625 10.25 -3.625 8 C-4.07101563 7.2575 -4.51703125 6.515 -4.9765625 5.75 C-5.31429687 5.1725 -5.65203125 4.595 -6 4 C-2.25 0 -2.25 0 0 0 Z " fill="#477846" transform="translate(64,74)"/>
<path d="M0 0 C-0.99 1.485 -0.99 1.485 -2 3 C-1.01 3.33 -0.02 3.66 1 4 C-0.60332791 4.08121924 -2.20784026 4.13929134 -3.8125 4.1875 C-4.70582031 4.22230469 -5.59914062 4.25710937 -6.51953125 4.29296875 C-9.41647515 3.95081002 -10.22555028 3.24606427 -12 1 C-10.37681021 0.63762737 -8.7513642 0.28534843 -7.125 -0.0625 C-6.22007812 -0.25972656 -5.31515625 -0.45695312 -4.3828125 -0.66015625 C-2 -1 -2 -1 0 0 Z " fill="#C6D6C5" transform="translate(135,109)"/>
<path d="M0 0 C1.65 0.33 3.3 0.66 5 1 C4.01 1.66 3.02 2.32 2 3 C2.33 3.66 2.66 4.32 3 5 C2.01 5 1.02 5 0 5 C0 5.66 0 6.32 0 7 C0.99 7.33 1.98 7.66 3 8 C2.01 8.33 1.02 8.66 0 9 C-0.66 8.67 -1.32 8.34 -2 8 C-1.34 5.36 -0.68 2.72 0 0 Z " fill="#427440" transform="translate(87,245)"/>
<path d="M0 0 C0.66 0.33 1.32 0.66 2 1 C-1.3 4.3 -4.6 7.6 -8 11 C-8 7.0234755 -6.61988497 5.9109833 -4 3 C-1.75 1.1875 -1.75 1.1875 0 0 Z " fill="#316B2F" transform="translate(163,107)"/>
<path d="M0 0 C0.99 0.66 1.98 1.32 3 2 C3 3.32 3 4.64 3 6 C3.66 6.33 4.32 6.66 5 7 C2.36 6.67 -0.28 6.34 -3 6 C-3 5.34 -3 4.68 -3 4 C-2.01 4 -1.02 4 0 4 C0 2.68 0 1.36 0 0 Z " fill="#E2EBE2" transform="translate(100,61)"/>
<path d="M0 0 C1.65 0 3.3 0 5 0 C4.01 0.33 3.02 0.66 2 1 C2 1.66 2 2.32 2 3 C2.66 3.33 3.32 3.66 4 4 C3.34 4 2.68 4 2 4 C2 4.99 2 5.98 2 7 C2.99 7.33 3.98 7.66 5 8 C3.35 8 1.7 8 0 8 C0 5.36 0 2.72 0 0 Z " fill="#3A6F39" transform="translate(121,252)"/>
<path d="M0 0 C0.66 0.33 1.32 0.66 2 1 C2 2.65 2 4.3 2 6 C0.35 6 -1.3 6 -3 6 C-3 4.68 -3 3.36 -3 2 C-2.01 1.34 -1.02 0.68 0 0 Z " fill="#376F35" transform="translate(238,142)"/>
<path d="M0 0 C0 2.31 0 4.62 0 7 C-1.32 7 -2.64 7 -4 7 C-4 5.02 -4 3.04 -4 1 C-1 0 -1 0 0 0 Z " fill="#DDE8DD" transform="translate(127,252)"/>
<path d="M0 0 C0.99 0 1.98 0 3 0 C3.33 1.98 3.66 3.96 4 6 C3.34 6 2.68 6 2 6 C2 6.66 2 7.32 2 8 C1.01 7.67 0.02 7.34 -1 7 C-0.34 7 0.32 7 1 7 C0.67 4.69 0.34 2.38 0 0 Z " fill="#E5EDE5" transform="translate(154,248)"/>
<path d="M0 0 C0.66 0 1.32 0 2 0 C3.76462683 3.08809695 4 4.23312136 4 8 C3.34 8 2.68 8 2 8 C2 7.01 2 6.02 2 5 C1.01 5.33 0.02 5.66 -1 6 C-1.33 5.34 -1.66 4.68 -2 4 C-1.34 4 -0.68 4 0 4 C0 2.68 0 1.36 0 0 Z " fill="#618C61" transform="translate(160,244)"/>
<path d="M0 0 C0.99 0.33 1.98 0.66 3 1 C1.35 2.98 -0.3 4.96 -2 7 C-2.66 6.01 -3.32 5.02 -4 4 C-2.68 2.68 -1.36 1.36 0 0 Z " fill="#97B496" transform="translate(113,85)"/>
<path d="M0 0 C2 2 2 2 2.5 5.5625 C2.665 6.696875 2.83 7.83125 3 9 C3.66 9.33 4.32 9.66 5 10 C4.01 10 3.02 10 2 10 C0.68 7.36 -0.64 4.72 -2 2 C-1.34 2 -0.68 2 0 2 C0 1.34 0 0.68 0 0 Z " fill="#D3E1D2" transform="translate(92,60)"/>
<path d="M0 0 C1.32 0.66 2.64 1.32 4 2 C3.67 3.32 3.34 4.64 3 6 C1.68 5.34 0.36 4.68 -1 4 C-0.67 2.68 -0.34 1.36 0 0 Z " fill="#D9E6D8" transform="translate(174,238)"/>
<path d="M0 0 C0.66 1.32 1.32 2.64 2 4 C0.69593116 6.01920337 -0.63823419 8.01924973 -2 10 C-2.33 10 -2.66 10 -3 10 C-3 8.02 -3 6.04 -3 4 C-2.34 3.67 -1.68 3.34 -1 3 C-0.67 2.01 -0.34 1.02 0 0 Z " fill="#E5EDE4" transform="translate(180,72)"/>
<path d="M0 0 C2.62386487 3.06117568 3 3.73173127 3 8 C-0.65316671 6.75023244 -1.78065836 6.32901247 -4 3 C-1.525 3.99 -1.525 3.99 1 5 C0.67 3.35 0.34 1.7 0 0 Z " fill="#3E713D" transform="translate(181,232)"/>
<path d="M0 0 C0.66 0.33 1.32 0.66 2 1 C-0.64 3.64 -3.28 6.28 -6 9 C-6.66 8.67 -7.32 8.34 -8 8 C-5.33333333 5.33333333 -2.66666667 2.66666667 0 0 Z " fill="#2F692C" transform="translate(23,109)"/>
<path d="M0 0 C1.32 0 2.64 0 4 0 C4 2.31 4 4.62 4 7 C3.34 7 2.68 7 2 7 C0.5393715 4.35261084 0 3.10551666 0 0 Z " fill="#689265" transform="translate(116,253)"/>
<path d="M0 0 C0.763125 0.639375 1.52625 1.27875 2.3125 1.9375 C4.88246713 4.14232781 4.88246713 4.14232781 8 5 C6.35 5.66 4.7 6.32 3 7 C0 2.25 0 2.25 0 0 Z " fill="#507F50" transform="translate(166,242)"/>
<path d="M0 0 C1.32 0 2.64 0 4 0 C4 1.65 4 3.3 4 5 C3.01 5.33 2.02 5.66 1 6 C0.67 4.02 0.34 2.04 0 0 Z " fill="#ECF1EB" transform="translate(104,59)"/>
<path d="M0 0 C0.99 0.33 1.98 0.66 3 1 C2.2575 1.8971875 2.2575 1.8971875 1.5 2.8125 C-0.28276418 4.97029994 -0.28276418 4.97029994 0 8 C-0.99 8 -1.98 8 -3 8 C-2.37240135 5.07120629 -1.41377341 2.63904371 0 0 Z " fill="#467744" transform="translate(81,242)"/>
<path d="M0 0 C0.99 0.99 1.98 1.98 3 3 C2.34 3.66 1.68 4.32 1 5 C-1.625 4.625 -1.625 4.625 -4 4 C-4 3.34 -4 2.68 -4 2 C-2.68 1.34 -1.36 0.68 0 0 Z " fill="#437641" transform="translate(124,105)"/>
<path d="M0 0 C1.134375 0.020625 2.26875 0.04125 3.4375 0.0625 C1.80337557 1.77090281 0.56843906 2.99703047 -1.5625 4.0625 C-2.5525 3.0725 -3.5425 2.0825 -4.5625 1.0625 C-3.5625 0.0625 -3.5625 0.0625 0 0 Z " fill="#346D33" transform="translate(95.5625,232.9375)"/>
<path d="M0 0 C2.475 0.99 2.475 0.99 5 2 C5 2.33 5 2.66 5 3 C4.21625 3.103125 3.4325 3.20625 2.625 3.3125 C-0.33045181 3.77595022 -0.33045181 3.77595022 -2 7 C-2 5.35 -2 3.7 -2 2 C-1.34 2 -0.68 2 0 2 C0 1.34 0 0.68 0 0 Z " fill="#3A7039" transform="translate(72,75)"/>
<path d="M0 0 C0.66 0 1.32 0 2 0 C2.28875 0.78375 2.5775 1.5675 2.875 2.375 C3.84912254 5.09671632 3.84912254 5.09671632 6 7 C1.125 6.125 1.125 6.125 0 5 C-0.04063832 3.33382885 -0.042721 1.66611905 0 0 Z " fill="#3A703A" transform="translate(79,67)"/>
</svg>
